<?xml version="1.0" encoding="UTF-8"?><svg id="Layer_1" xmlns="http://www.w3.org/2000/svg" xmlns:xlink="http://www.w3.org/1999/xlink" viewBox="0 0 211.76 235.52"><defs><style>.cls-1{clip-path:url(#clippath);}.cls-2{fill:#231f20;}.cls-3{fill:#6fccdd;}.cls-4,.cls-5{fill:#b9529f;}.cls-4,.cls-5,.cls-6{stroke-miterlimit:10;}.cls-4,.cls-6{stroke:#6fccdd;stroke-width:2px;}.cls-5{stroke:#f7ec13;}.cls-6{fill:none;}</style><clipPath id="clippath"><path class="cls-6" d="M105.56,13.68C50.15,13.68,5.23,58.6,5.23,114.01s44.92,100.33,100.33,100.33,100.33-44.92,100.33-100.33S160.98,13.68,105.56,13.68ZM21.06,114.01m169.01,0"/></clipPath></defs><circle class="cls-2" cx="105.88" cy="114.03" r="105.88"/><g><circle class="cls-2" cx="185.24" cy="67.41" r="21.6"/><circle class="cls-2" cx="185.24" cy="159.7" r="21.6"/><circle class="cls-2" cx="25.55" cy="68.24" r="21.6"/><circle class="cls-2" cx="104.93" cy="21.6" r="21.6"/><circle class="cls-2" cx="105.72" cy="206.19" r="21.6"/><circle class="cls-2" cx="25.55" cy="160.53" r="21.6"/></g><path class="cls-3" d="M190.58,115l1.25-.72-.42-.72,.42-.72-1.25-.72-10.71-18.54v-21.41l.72-1.25-.72-.42v-.83h-1.44l-18.55-10.71-11.96-20.71-2.03,1.17h-19.85l-19.33-11.16-.72-1.25-.72,.42-.72-.42-.72,1.25-19.33,11.16h-19.85l-2.03-1.17-11.96,20.71-18.55,10.71h-1.44v.83l-.72,.42,.72,1.25v21.41l-10.71,18.54-1.25,.72,.42,.72-.42,.72,1.24,.72,10.72,18.56v21.4l-.72,1.25,.72,.42v.83h1.44l18.54,10.7,11.59,20.07h0l.37,.65,1.12-.65h21.67l18.42,10.63,.72,1.25,.72-.42,.72,.42,.72-1.25,18.42-10.63h21.67l1.12,.65,11.96-20.71,18.55-10.71h1.44v-.83l.72-.42-.72-1.25v-21.41l10.71-18.54Zm-12.5,40.59l-.13,.07h-10.85l5.55-9.62,5.42,9.39v.15Zm-40.31,25.35l18.8-10.85-9.4,16.28-9.4-5.43Zm-32.49,16.69l-.13-.07-5.38-9.32h11.02l-5.38,9.32-.13,.07Zm-6.55-11.19l-7.97-13.8,14.51-8.38,14.51,8.38-7.97,13.8h-13.09Zm-66.26-30.84v-.15l5.42-9.39,5.55,9.61h-10.84l-.13-.07Zm0-84.06l.13-.07h10.85l-5.55,9.62-5.42-9.39v-.15ZM105.27,29.49l.13,.07,5.68,9.85h-11.63l5.68-9.85,.13-.07Zm6.85,11.71l7.67,13.28-14.51,8.38-14.51-8.38,7.67-13.28h13.7Zm65.95,30.32v.15l-5.42,9.39-5.55-9.62h10.85l.13,.07Zm-53.22,79.35c-5.93,3.13-12.56,4.79-19.46,4.79-11.15,0-21.63-4.34-29.52-12.23-7.88-7.88-12.23-18.37-12.23-29.52s4.34-21.63,12.23-29.52c7.88-7.88,18.37-12.23,29.52-12.23s21.63,4.34,29.52,12.23c7.88,7.88,12.23,18.37,12.23,29.52s-4.34,21.63-12.23,29.52c-2.25,2.25-4.72,4.21-7.35,5.87l-2.71,1.56Zm14.35-66.34l23.59,13.62-7.86,13.62-15.72-27.23Zm14.69,29.03l-6.2,10.73c.82-3.35,1.24-6.83,1.24-10.37,0-4.01-.54-7.93-1.58-11.69l6.54,11.32Zm-98.28-1.79l-7.86-13.62,23.59-13.62-15.72,27.23Zm8.07-10.39c-1.2,4.02-1.83,8.24-1.83,12.55,0,3.81,.49,7.55,1.43,11.14l-6.64-11.5,7.04-12.19Zm-9.11,12.19l-8.38,14.51-13.73-7.93v-13.18l13.73-7.93,8.38,14.51Zm1.04,1.79l15.72,27.23-23.59-13.62,7.86-13.62Zm99.31,0l7.86,13.62-23.59,13.62,15.72-27.23Zm1.04-1.79l8.38-14.51,13.73,7.93v13.18l-13.73,7.93-8.38-14.51Zm22.11,8.66v10.6l-5.49,9.51-7.34-12.71,12.83-7.41Zm1.79-1.04l7.39-4.27-7.39,12.8v-8.53Zm9.17-7.37l-9.17,5.3v-11.1l8.73,5.04,.44,.77Zm-9.17-7.88v-8.01l6.93,12.01-6.93-4Zm-1.79-1.04l-12.83-7.41,7.19-12.45,5.64,9.78v10.08Zm-6.68-21.65l-7.7,13.34-26.28-15.17-5.76-9.97h32.93l6.81,11.8Zm-37.09-3.62l-14.16-8.17h9.44l4.72,8.17Zm-17.27-9.97l-9.97-5.76,13.62-7.86,7.86,13.62h-11.51Zm-3.59,0h-16.35l8.17-4.72,8.17,4.72Zm-19.94,0h-11.51l7.86-13.62,13.62,7.86-9.97,5.76Zm-3.11,1.79l-14.16,8.17,4.72-8.17h9.44Zm-17.27,9.97l-26.28,15.17-7.78-13.47,6.74-11.67h33.07l-5.76,9.97Zm-27.83,16.07l-12.83,7.41v-10.33l5.57-9.65,7.26,12.57Zm-14.63,8.44l-7.15,4.13,7.15-12.39v8.26Zm0,2.07v11.1l-9.28-5.36,.33-.58,8.95-5.17Zm0,13.18v8.77l-7.6-13.16,7.6,4.39Zm1.79,1.04l12.83,7.41-7.41,12.83-5.42-9.39v-10.85Zm6.46,22.03l7.93-13.73,26.28,15.17,5.76,9.97H45.52l-6.59-11.41Zm37.31,3.24l14.16,8.17h-9.44l-4.72-8.17Zm17.27,9.97l9.97,5.76-13.62,7.86-7.86-13.62h11.51Zm3.59,0h16.35l-8.17,4.72-8.17-4.72Zm19.94,0h11.51l-7.86,13.62-13.62-7.86,9.97-5.76Zm3.11-1.79l5.56-3.21c.95-.5,1.89-1.04,2.8-1.62l5.8-3.35-4.72,8.17h-9.44Zm17.27-9.97l26.28-15.17,7.86,13.61-6.66,11.53h-33.23l5.76-9.97Zm9.71-104.49l8.98,15.56-18.34-10.59,8.61-4.97h.75Zm10.78,18.67l5.64,9.78h-32.93l-8.38-14.51,13.73-7.93,21.93,12.66Zm-36.56-6.29l-7.15-12.38h11.37l8.61,4.97-12.83,7.41Zm-32.14,0l-12.83-7.41,8.61-4.97h11.37l-7.15,12.38Zm-.9,1.55l-8.38,14.51H46.85l5.57-9.65,22.15-12.79,13.73,7.93Zm-34.09,1.75l9.06-15.69h.9l8.61,4.97-18.56,10.72Zm-.45,113.06l19.01,10.98-9.5,5.49-9.5-16.46Zm-1.79-3.11l-5.42-9.39h33.37l8.38,14.51-13.73,7.93-22.6-13.05Zm37.23,6.68l7.45,12.9h-10.76l-9.52-5.5,12.83-7.41Zm32.14,0l12.83,7.41-9.52,5.5h-10.76l7.45-12.9Zm.9-1.55l8.38-14.51h33.23l-5.49,9.51-22.39,12.93-13.73-7.93Zm55.83-81.51l-4.39-7.6,4.39-7.6v15.2Zm-3.24-20.8h-8.77l-4.39-7.6,13.16,7.6Zm-32.05-28.45l-6.81,3.93-6.81-3.93h13.63Zm-20.33-1.79h-9.3l-4.65-8.05,13.94,8.05Zm-20.42-8.05l-4.65,8.05h-9.3l13.94-8.05Zm-20.64,9.85l-6.81,3.93-6.81-3.93h13.63Zm-32.52,20.85l-4.39,7.6h-8.77l13.16-7.6Zm-16.4,13.21l4.39,7.6-4.39,7.6v-15.2Zm0,61.4l4.38,7.59-4.38,7.59v-15.19Zm3.24,20.79h8.77l4.38,7.59-13.15-7.59Zm31.14,28.97l7.73-4.46,7.73,4.46h-15.45Zm22.15,1.79h8.69l4.34,7.52-13.03-7.52Zm19.51,7.52l4.34-7.52h8.69l-13.03,7.52Zm19.73-9.32l7.73-4.46,7.73,4.46h-15.45Zm33.43-21.38l4.39-7.6h8.77l-13.16,7.6Zm16.4-13.21l-4.39-7.6,4.39-7.6v15.2Z"/><g><g class="cls-1"><path class="cls-4" d="M149.29,186.37c-4.39-6.83-6.94-14.96-6.94-23.68,0-24.21,19.62-43.83,43.83-43.83,1.27,0,2.52,.06,3.77,.16-1.67,28.58-17.54,53.34-40.65,67.34Zm-90.63,16.4c14,7.41,29.96,11.61,46.9,11.61s33.65-4.4,47.88-12.14l6.91-4.13c24.98-16.31,42.25-43.46,45.13-74.77l.42-8.05c0-.42,0-.85,0-1.27,0-37.01-20.03-69.34-49.84-86.74l-7.12-3.78c-13.13-6.31-27.85-9.84-43.4-9.84s-30.66,3.63-43.93,10.1l-7.1,3.82C25.01,45.04,5.2,77.21,5.2,114.01c0,.83,.01,1.67,.03,2.5l.52,8.03c3.25,31.2,20.8,58.15,45.97,74.19l6.94,4.04ZM144.67,39.05c-7.13,14.56-22.08,24.58-39.38,24.58s-32.1-9.92-39.27-24.35c11.8-6.26,25.26-9.8,39.55-9.8s27.41,3.46,39.11,9.57ZM62.56,186.8c-23.2-13.74-39.26-38.25-41.3-66.65,1.31-.12,2.65-.18,3.99-.18,24.21,0,43.83,19.62,43.83,43.83,0,8.44-2.39,16.32-6.52,23Zm6.64,3.54c4.69-7.75,7.39-16.83,7.39-26.54,0-28.35-22.98-51.33-51.33-51.33-1.41,0-2.81,.06-4.2,.17,.47-29.13,15.67-54.69,38.49-69.53,8.49,16.64,25.79,28.04,45.75,28.04s37.45-11.52,45.89-28.31c22.75,14.61,38.04,39.83,38.88,68.66-1.28-.1-2.57-.14-3.88-.14-28.35,0-51.33,22.98-51.33,51.33,0,10.03,2.87,19.38,7.84,27.28-11.21,5.49-23.81,8.57-37.13,8.57s-25.35-2.95-36.37-8.2Zm12.81,45.18"/></g><path class="cls-6" d="M105.56,13.68C50.15,13.68,5.23,58.6,5.23,114.01s44.92,100.33,100.33,100.33,100.33-44.92,100.33-100.33S160.98,13.68,105.56,13.68ZM21.06,114.01m169.01,0"/></g><circle class="cls-4" cx="185.24" cy="67.41" r="16.62"/><circle class="cls-4" cx="185.24" cy="159.7" r="16.62"/><circle class="cls-4" cx="25.55" cy="68.24" r="16.62"/><circle class="cls-4" cx="104.93" cy="21.6" r="16.62"/><circle class="cls-4" cx="105.72" cy="206.19" r="16.62"/><circle class="cls-4" cx="25.55" cy="160.53" r="16.62"/><g><path class="cls-5" d="M122.93,115.23c7.18-4.02,12.98,3.14,16.37,2.88,.68-1.23,1.01-2.64,1.01-4.16,0-1.29-.27-2.47-.74-3.54-5.84-6.59-18.58-2.47-18.58-2.47-.78,0-1.46-.68-1.46-1.46s.68-1.46,1.46-1.46c0,0,14-3.55,18.37,2.53,.62-1.18,.95-2.59,.95-4.05,0-3.54-2.02-6.58-4.88-7.75-.06,.06-5.35,4.6-11.46,2.8-.78,0-1.46-.74-1.4-1.52,0-.78,.68-1.46,1.52-1.4,4.77,1.89,7.75-.84,8.76-1.52-1.88-6.32-7.9-7.15-8.12-7.14,0,0-9.41,5.82-8.5,15.95,.07,.78-.62,1.52-1.4,1.52h-.06c-.78,0-1.45-.62-1.46-1.4-.26-11.79,8.81-17.46,8.99-17.51-.74-3.93-3.83-6.91-7.53-6.91-4.16,0-7.47,3.7-7.47,8.25v54.25c0,4.55,3.37,8.25,7.47,8.25,3.77,0,6.88-3.06,7.38-6.98,0,0-2.01-6.46-8.01-6.95-.79-.07-1.29-.95-1.18-1.73,.17-.78,.95-1.29,1.73-1.18,7.1,.65,10.35,8.6,10.56,8.6,4.16,0,7.47-3.7,7.47-8.25,4.16,0,7.47-3.7,7.47-8.25,0-1.29-.27-2.53-.74-3.6-3.42,.25-10.38-6.5-15.12-3.22-.61,.42-1.23,.97-1.46,1.47-.33,.74-1.18,1.07-1.91,.78-.74-.33-1.07-1.18-.78-1.91,.64-1.45,1.95-2.49,2.73-2.92Zm-9.62,5.95c.13,.78-.39,1.58-1.23,1.69-.12,.01-1.5,.09-1.69-1.23-.92-6.66,4.73-12.7,5.16-13.76,.39-.74,1.23-1.01,1.97-.62s1.01,1.23,.62,1.97c-.56,1.17-5.69,6.49-4.83,11.95Zm14.65,.06c.33-.74,1.18-1.13,1.91-.78,.74,.33,1.13,1.18,.78,1.91-1.23,2.98-7.14,10.33-15,6.68-.72-.33-1.13-1.18-.78-1.91,.33-.74,1.18-1.07,1.91-.78,5.71,2.83,10.29-2.8,11.18-5.12Z"/><path class="cls-5" d="M89.66,118.17c.27,.74-.06,1.58-.78,1.91-.74,.27-1.58-.06-1.91-.78-.23-.51-.85-1.05-1.46-1.47-4.73-3.28-11.68,3.47-15.12,3.22-.45,1.07-.74,2.3-.74,3.6,0,4.55,3.31,8.25,7.47,8.25,0,4.55,3.31,8.25,7.47,8.25,.22,0,3.45-7.93,10.56-8.6,.78-.12,1.58,.39,1.73,1.18,.12,.78-.38,1.68-1.18,1.73-6,.49-8.01,6.95-8.01,6.95,.51,3.92,3.63,6.98,7.38,6.98,4.1,0,7.47-3.7,7.47-8.25v-54.25c0-4.55-3.31-8.25-7.47-8.25-3.7,0-6.79,2.98-7.53,6.91,.17,.06,9.25,5.72,8.99,17.51-.01,.79-.68,1.4-1.46,1.4h-.06c-.78,0-1.47-.74-1.4-1.52,.91-10.13-8.5-15.95-8.5-15.95-.22-.01-6.24,.82-8.12,7.14,1.01,.68,4,3.4,8.76,1.52,.84-.06,1.52,.62,1.52,1.4,.06,.78-.62,1.52-1.4,1.52-6.1,1.78-11.4-2.75-11.46-2.8-2.86,1.18-4.88,4.21-4.88,7.75,0,1.46,.33,2.86,.95,4.05,4.38-6.1,18.38-2.54,18.38-2.54,.78,0,1.46,.68,1.46,1.46s-.68,1.46-1.46,1.46c0,0-12.75-4.12-18.58,2.47-.45,1.07-.74,2.24-.74,3.54,0,1.52,.33,2.92,1.01,4.16,3.4,.26,9.19-6.88,16.37-2.88,.78,.43,2.1,1.47,2.72,2.93Zm2.08-8.93c-.39-.74-.12-1.58,.62-1.97,.74-.39,1.58-.12,1.97,.62,.43,1.05,6.08,7.1,5.16,13.76-.19,1.32-1.56,1.24-1.69,1.23-.84-.12-1.36-.9-1.23-1.69,.87-5.46-4.26-10.78-4.83-11.95Zm1.34,17.12c.74-.27,1.58,.06,1.91,.78,.33,.74-.06,1.58-.78,1.91-7.86,3.66-13.76-3.7-15-6.68-.33-.74,.06-1.58,.78-1.91,.74-.33,1.58,.06,1.91,.78,.91,2.31,5.49,7.95,11.18,5.12Z"/></g></svg>