<?xml version="1.0" encoding="UTF-8"?><svg xmlns="http://www.w3.org/2000/svg" viewBox="0 0 841.24 841.24"><defs><style>.cls-1{fill:#db088c;}.Graphic_Style_2,.Graphic_Style_5,.cls-2,.Graphic_Style_9,.Graphic_Style,.cls-3,.cls-4,.cls-5,.cls-6,.Graphic_Style_6,.Graphic_Style_10,.cls-7,.cls-8,.cls-9,.cls-10,.cls-11{stroke-width:2px;}.Graphic_Style_2,.Graphic_Style_5,.cls-2,.Graphic_Style_9,.Graphic_Style,.cls-3,.cls-4,.cls-5,.cls-6,.Graphic_Style_6,.Graphic_Style_10,.cls-7,.cls-8,.cls-9,.cls-10,.cls-11,.cls-12{stroke-miterlimit:10;}.Graphic_Style_2,.Graphic_Style_5,.Graphic_Style_9,.Graphic_Style,.Graphic_Style_6,.Graphic_Style_10{stroke:#fff;}.Graphic_Style_2,.cls-3{fill:#0093d4;}.Graphic_Style_5{fill:#00b36c;}.cls-2,.cls-3,.cls-4,.cls-5,.cls-6,.cls-7,.cls-8,.cls-9,.cls-10,.cls-11,.cls-12{stroke:#303040;}.cls-2,.Graphic_Style_10{fill:#b93b95;}.Graphic_Style_9{fill:#e84d24;}.Graphic_Style,.cls-5{fill:#fcb315;}.cls-4{fill:#e470ab;}.cls-6{fill:#ffce40;}.Graphic_Style_6{fill:#9479b7;}.cls-7{fill:#b8a7d1;}.cls-8{fill:#79c8a2;}.cls-9{fill:#4bc0e0;}.cls-10{fill:#f58148;}.cls-11,.cls-12{fill:none;}</style></defs><g id="T1"><g id="Segments"><path class="cls-2" d="m303.7,218.1c36.89-21.3,77.18-31.4,116.92-31.36v70.48c-27.78-.03-55.93,6.99-81.71,21.87-78.16,45.13-104.94,145.08-59.82,223.24l-60.99,35.21c-64.57-111.85-26.25-254.86,85.59-319.44Z"/><path class="cls-5" d="m562.13,502.32c28.17-48.89,30.26-111.03.02-163.41-30.24-52.38-85.1-81.64-141.53-81.69v-70.48c80.74.08,159.24,42,202.52,116.96,43.27,74.95,40.33,163.9.03,233.86l-61.03-35.24Z"/><path class="cls-3" d="m218.1,537.54l60.99-35.21c45.13,78.16,145.08,104.94,223.24,59.82,25.78-14.89,45.93-35.76,59.8-59.83l61.03,35.24c-19.84,34.44-48.73,64.28-85.62,85.58-111.85,64.57-254.86,26.25-319.44-85.59Z"/></g></g><g id="T2"><g id="Segments-2"><g><path class="cls-1" d="m420.62,186.73v-56.22c-107.37,0-201.11,58.33-251.27,145.03l48.69,28.11c40.44-69.9,116.02-116.93,202.58-116.93Z"/><path class="cls-1" d="m623.2,303.66l48.69-28.11c-50.16-86.7-143.9-145.03-251.27-145.03v56.22c86.56,0,162.14,47.03,202.58,116.93Z"/><path class="cls-1" d="m218.04,537.58l-48.69,28.11c50.16,86.7,143.9,145.03,251.27,145.03v-56.22c-86.56,0-162.14-47.03-202.58-116.93Z"/><path class="cls-1" d="m186.73,420.62c0-42.61,11.4-82.55,31.31-116.96l-48.69-28.11c-24.69,42.68-38.83,92.22-38.83,145.07s14.14,102.4,38.83,145.07l48.69-28.11c-19.91-34.41-31.31-74.35-31.31-116.96Z"/><path class="cls-1" d="m654.5,420.62c0,42.61-11.4,82.55-31.31,116.96l48.69,28.11c24.69-42.68,38.83-92.22,38.83-145.07s-14.14-102.4-38.83-145.07l-48.69,28.11c19.91,34.41,31.31,74.35,31.31,116.96Z"/><path class="cls-1" d="m623.2,537.58c-40.44,69.9-116.02,116.93-202.58,116.93v56.22c107.37,0,201.11-58.33,251.27-145.03l-48.69-28.11Z"/></g><g><path class="Graphic_Style_10" d="m420.62,186.73v-56.22c-107.37,0-201.11,58.33-251.27,145.03l48.69,28.11c40.44-69.9,116.02-116.93,202.58-116.93Z"/><path class="Graphic_Style_9" d="m623.2,303.66l48.69-28.11c-50.16-86.7-143.9-145.03-251.27-145.03v56.22c86.56,0,162.14,47.03,202.58,116.93Z"/><path class="Graphic_Style_2" d="m218.04,537.58l-48.69,28.11c50.16,86.7,143.9,145.03,251.27,145.03v-56.22c-86.56,0-162.14-47.03-202.58-116.93Z"/><path class="Graphic_Style_6" d="m186.73,420.62c0-42.61,11.4-82.55,31.31-116.96l-48.69-28.11c-24.69,42.68-38.83,92.22-38.83,145.07s14.14,102.4,38.83,145.07l48.69-28.11c-19.91-34.41-31.31-74.35-31.31-116.96Z"/><path class="Graphic_Style" d="m654.5,420.62c0,42.61-11.4,82.55-31.31,116.96l48.69,28.11c24.69-42.68,38.83-92.22,38.83-145.07s-14.14-102.4-38.83-145.07l-48.69,28.11c19.91,34.41,31.31,74.35,31.31,116.96Z"/><path class="Graphic_Style_5" d="m623.2,537.58c-40.44,69.9-116.02,116.93-202.58,116.93v56.22c107.37,0,201.11-58.33,251.27-145.03l-48.69-28.11Z"/></g><g><path class="cls-11" d="m420.62,186.73v-56.22c-107.37,0-201.11,58.33-251.27,145.03l48.69,28.11c40.44-69.9,116.02-116.93,202.58-116.93Z"/><path class="cls-11" d="m623.2,303.66l48.69-28.11c-50.16-86.7-143.9-145.03-251.27-145.03v56.22c86.56,0,162.14,47.03,202.58,116.93Z"/><path class="cls-11" d="m218.04,537.58l-48.69,28.11c50.16,86.7,143.9,145.03,251.27,145.03v-56.22c-86.56,0-162.14-47.03-202.58-116.93Z"/><path class="cls-11" d="m186.73,420.62c0-42.61,11.4-82.55,31.31-116.96l-48.69-28.11c-24.69,42.68-38.83,92.22-38.83,145.07s14.14,102.4,38.83,145.07l48.69-28.11c-19.91-34.41-31.31-74.35-31.31-116.96Z"/><path class="cls-11" d="m654.5,420.62c0,42.61-11.4,82.55-31.31,116.96l48.69,28.11c24.69-42.68,38.83-92.22,38.83-145.07s-14.14-102.4-38.83-145.07l-48.69,28.11c19.91,34.41,31.31,74.35,31.31,116.96Z"/><path class="cls-11" d="m623.2,537.58c-40.44,69.9-116.02,116.93-202.58,116.93v56.22c107.37,0,201.11-58.33,251.27-145.03l-48.69-28.11Z"/></g></g></g><g id="T3"><g id="Segments-3"><path class="cls-12" d="m134.88,471c5.95,33.96,17.8,65.89,34.46,94.69"/><path class="cls-12" d="m420.62,710.72c34.86,0,68.28-6.15,99.25-17.43"/><path class="cls-12" d="m706.35,370.24c-5.95-33.96-17.8-65.89-34.46-94.69"/><path class="cls-12" d="m706.35,471c2.87-16.36,4.37-33.2,4.37-50.38s-1.5-34.02-4.37-50.38"/><path class="cls-12" d="m671.89,565.69c16.66-28.8,28.51-60.73,34.46-94.69"/><path class="cls-12" d="m607.09,642.84c25.82-21.69,47.82-47.79,64.8-77.15"/><path class="cls-12" d="m519.86,693.3c32.1-11.69,61.55-28.89,87.22-50.45"/><path class="cls-12" d="m607.09,198.39c-25.67-21.56-55.12-38.77-87.22-50.45"/><path class="cls-12" d="m671.89,275.55c-16.99-29.36-38.98-55.46-64.8-77.15"/><path class="cls-12" d="m519.86,147.94c-30.96-11.27-64.39-17.43-99.25-17.43"/><path class="cls-12" d="m234.15,198.39c-25.82,21.69-47.82,47.79-64.8,77.15"/><path class="cls-12" d="m169.35,275.55c-16.66,28.8-28.51,60.73-34.46,94.69"/><path class="cls-12" d="m134.88,370.24c-2.87,16.36-4.37,33.2-4.37,50.38s1.5,34.02,4.37,50.38"/><path class="cls-12" d="m321.37,147.94c-32.1,11.69-61.55,28.89-87.22,50.45"/><path class="cls-12" d="m420.62,130.51c-34.86,0-68.28,6.15-99.25,17.43"/><path class="cls-6" d="m833.91,347.74l-127.56,22.49c2.87,16.36,4.37,33.2,4.37,50.38s-1.5,34.02-4.37,50.38l127.56,22.49c4.15-23.67,6.32-48.02,6.32-72.88s-2.18-49.21-6.32-72.88Z"/><path class="cls-8" d="m420.62,710.72v129.51c50.42,0,98.77-8.9,143.55-25.21l-44.31-121.73c-30.96,11.27-64.39,17.43-99.25,17.43Z"/><path class="cls-9" d="m321.37,693.3l-44.31,121.73c44.79,16.3,93.13,25.21,143.55,25.21v-129.51c-34.86,0-68.28-6.15-99.25-17.43Z"/><path class="cls-9" d="m234.15,642.84l-83.25,99.21c37.13,31.19,79.72,56.07,126.16,72.98l44.31-121.73c-32.1-11.69-61.55-28.89-87.22-50.45Z"/><path class="cls-9" d="m169.35,565.69l-112.18,64.77c24.57,42.47,56.39,80.22,93.74,111.59l83.25-99.21c-25.82-21.69-47.82-47.79-64.8-77.15Z"/><path class="cls-6" d="m671.89,565.69l112.18,64.77c24.1-41.66,41.24-87.84,49.85-136.96l-127.56-22.49c-5.95,33.96-17.8,65.89-34.46,94.69Z"/><path class="cls-7" d="m134.88,471l-127.56,22.49c8.6,49.12,25.74,95.31,49.85,136.96l112.18-64.77c-16.66-28.8-28.51-60.73-34.46-94.69Z"/><path class="cls-8" d="m607.09,642.84l83.25,99.21c37.35-31.37,69.16-69.12,93.74-111.59l-112.18-64.77c-16.99,29.36-38.98,55.46-64.8,77.15Z"/><path class="cls-8" d="m519.86,693.3l44.31,121.73c46.44-16.91,89.03-41.79,126.16-72.98l-83.25-99.21c-25.67,21.56-55.12,38.77-87.22,50.45Z"/><path class="cls-4" d="m234.15,198.39l-83.25-99.21c-37.35,31.37-69.16,69.12-93.74,111.59l112.18,64.77c16.99-29.36,38.98-55.46,64.8-77.15Z"/><path class="cls-10" d="m519.86,147.94l44.31-121.73C519.39,9.9,471.04,1,420.62,1v129.51c34.86,0,68.28,6.15,99.25,17.43Z"/><path class="cls-4" d="m420.62,130.51V1c-50.42,0-98.77,8.9-143.55,25.21l44.31,121.73c30.96-11.27,64.39-17.43,99.25-17.43Z"/><path class="cls-10" d="m607.09,198.39l83.25-99.21c-37.13-31.19-79.72-56.07-126.16-72.98l-44.31,121.73c32.1,11.69,61.55,28.89,87.22,50.45Z"/><path class="cls-10" d="m671.89,275.55l112.18-64.77c-24.57-42.47-56.39-80.22-93.74-111.59l-83.25,99.21c25.82,21.69,47.82,47.79,64.8,77.15Z"/><path class="cls-7" d="m169.35,275.55l-112.18-64.77c-24.1,41.66-41.24,87.84-49.85,136.96l127.56,22.49c5.95-33.96,17.8-65.89,34.46-94.69Z"/><path class="cls-4" d="m321.37,147.94l-44.31-121.73c-46.44,16.91-89.03,41.79-126.16,72.98l83.25,99.21c25.67-21.56,55.12-38.77,87.22-50.45Z"/><path class="cls-7" d="m130.51,420.62c0-17.19,1.5-34.02,4.37-50.38l-127.56-22.49c-4.15,23.67-6.32,48.02-6.32,72.88s2.18,49.21,6.32,72.88l127.56-22.49c-2.87-16.36-4.37-33.2-4.37-50.38Z"/><path class="cls-6" d="m706.35,370.24l127.56-22.49c-8.6-49.12-25.74-95.31-49.85-136.96l-112.18,64.77c16.66,28.8,28.51,60.73,34.46,94.69Z"/></g></g></svg>