<?xml version="1.0" encoding="UTF-8"?><svg id="Layer_1" xmlns="http://www.w3.org/2000/svg" viewBox="0 0 212.46 178.05"><defs><style>.cls-1{stroke-width:5px;}.cls-1,.cls-2{fill:#231f20;}.cls-1,.cls-3{stroke:#231f20;}.cls-1,.cls-3,.cls-4,.cls-5{stroke-miterlimit:10;}.cls-6,.cls-3{fill:#b9529f;}.cls-7,.cls-5{fill:#6fccdd;}.cls-3,.cls-4{stroke-width:2px;}.cls-4{fill:#f7ec13;stroke:#1a1a1a;}.cls-5{stroke:#b9529f;stroke-width:6px;}</style></defs><g><g><path class="cls-2" d="M11,172.55c-1.99,0-3.82-1.07-4.8-2.81-.97-1.73-.94-3.86,.1-5.55L101.37,8.14c1-1.64,2.78-2.64,4.69-2.64h0c1.92,0,3.69,1,4.69,2.63l95.4,156.05c1.04,1.7,1.08,3.82,.1,5.56-.97,1.74-2.81,2.81-4.8,2.81H11Z"/><path class="cls-2" d="M106.06,11l95.4,156.05H11L106.06,11m0-11s0,0,0,0c-3.83,0-7.39,2-9.39,5.28L1.61,161.32c-2.07,3.4-2.14,7.64-.2,11.11,1.95,3.47,5.61,5.61,9.59,5.61H201.46c3.98,0,7.65-2.15,9.59-5.62,1.95-3.47,1.87-7.72-.21-11.12L115.45,5.26c-2-3.27-5.55-5.26-9.39-5.26h0Z"/></g><g><polygon class="cls-6" points="110.57 14.82 106.07 88.35 101.57 14.82 110.57 14.82 110.57 14.82"/><polygon class="cls-6" points="125.9 35.01 110.51 88.61 117.08 33.23 125.9 35.01 125.9 35.01"/><polygon class="cls-6" points="137.53 53.21 118.55 89.8 129.14 49.96 137.53 53.21 137.53 53.21"/><polygon class="cls-6" points="143.95 73.79 124.3 91.5 136.88 68.22 143.95 73.79 143.95 73.79"/><polygon class="cls-6" points="150.37 83.96 132.46 94.88 144.15 77.46 150.37 83.96 150.37 83.96"/><polygon class="cls-6" points="154.53 93.02 141.69 99.24 148.25 86.57 154.53 93.02 154.53 93.02"/><polygon class="cls-6" points="160.04 106.01 148.62 106.32 156.27 97.84 160.04 106.01 160.04 106.01"/><polygon class="cls-6" points="166.92 116.38 154.97 113.81 165.45 107.5 166.92 116.38 166.92 116.38"/><polygon class="cls-6" points="177.85 133.5 153.24 118.85 181.19 125.14 177.85 133.5 177.85 133.5"/><polygon class="cls-6" points="188.59 153.07 145.16 125.93 192.67 145.05 188.59 153.07 188.59 153.07"/><polygon class="cls-6" points="187.2 168.92 136.7 130.43 192.13 161.39 187.2 168.92 187.2 168.92"/><polygon class="cls-6" points="163.15 170.36 130.72 134.65 169.22 163.71 163.15 170.36 163.15 170.36"/><polygon class="cls-6" points="141.47 169.54 124.95 136.83 148.95 164.53 141.47 169.54 141.47 169.54"/><polygon class="cls-6" points="127.49 169.03 117.45 138.46 135.57 165.05 127.49 169.03 127.49 169.03"/><polygon class="cls-6" points="112.96 167.95 111.68 139.55 121.77 166.12 112.96 167.95 112.96 167.95"/><polygon class="cls-6" points="101.73 166.99 106.48 139.82 110.73 167.08 101.73 166.99 101.73 166.99"/><polygon class="cls-6" points="90.3 166.15 100.13 140.09 99.12 167.92 90.3 166.15 90.3 166.15"/><polygon class="cls-6" points="77.76 165.13 94.94 139.01 85.91 168.94 77.76 165.13 77.76 165.13"/><polygon class="cls-6" points="62.96 164.4 88.01 137.37 70.25 169.67 62.96 164.4 62.96 164.4"/><polygon class="cls-6" points="42.24 163.67 82.24 134.1 48.22 170.4 42.24 163.67 42.24 163.67"/><polygon class="cls-6" points="13.54 161.84 74.74 130.29 18.18 169.55 13.54 161.84 13.54 161.84"/><polygon class="cls-6" points="21.15 141.59 67.23 124.84 24.99 149.73 21.15 141.59 21.15 141.59"/><polygon class="cls-6" points="34.2 119.46 57.42 117.76 36.58 128.14 34.2 119.46 34.2 119.46"/><polygon class="cls-6" points="50.48 104.74 55.69 111.77 47.03 113.05 50.48 104.74 50.48 104.74"/><polygon class="cls-6" points="56.41 96.13 63.19 105.23 51.91 103.92 56.41 96.13 56.41 96.13"/><polygon class="cls-6" points="62.56 87.67 71.85 98.69 57.83 95.33 62.56 87.67 62.56 87.67"/><polygon class="cls-6" points="69.69 77.97 79.93 93.79 63.52 84.53 69.69 77.97 69.69 77.97"/><polygon class="cls-6" points="73.68 60.98 84.81 88.61 65.93 65.56 73.68 60.98 73.68 60.98"/><polygon class="cls-6" points="83.06 51.74 93.8 89.8 74.73 55.16 83.06 51.74 83.06 51.74"/><polygon class="cls-6" points="95.34 33.03 100.52 89.89 86.47 34.55 95.34 33.03 95.34 33.03"/></g><path class="cls-6" d="M106.08,20.7l85.87,140.46H20.51L106.08,20.7m0-11.52l-5.12,8.4L15.39,158.03l-5.56,9.12H202.65l-5.58-9.13L111.2,17.57l-5.13-8.39h0Z"/><path class="cls-5" d="M64.24,109.09c13.07-9.85,46.27-34.24,83.34,.63,2.47,2.32,2.49,6.47-.04,8.73-16.82,15.01-45,30.62-83.11,.08-2.93-2.34-3.19-7.18-.2-9.43Z"/><g><path class="cls-7" d="M105.57,131.45c-13.15,0-25.84-5.54-37.71-16.47-.46-.43-.72-.99-.72-1.58,0-.59,.25-1.16,.72-1.58,1.75-1.61,17.69-15.73,39.1-15.73,13.15,0,25.56,5.36,36.89,15.93,.44,.41,.69,.97,.7,1.56,.01,.6-.22,1.16-.65,1.59-1.67,1.67-16.89,16.29-38.33,16.29Z"/><path class="cls-2" d="M106.96,94.08v4c12.63,0,24.58,5.18,35.53,15.39,.03,.03,.07,.07,.07,.14,0,.07-.03,.11-.06,.14-1.61,1.61-16.28,15.7-36.91,15.7-12.63,0-24.87-5.36-36.36-15.94-.03-.02-.07-.07-.07-.11,0-.04,.05-.09,.07-.11,1.69-1.56,17.09-15.2,37.75-15.2v-4m0,0c-19.03,0-34.52,10.78-40.46,16.26-1.82,1.67-1.82,4.44,0,6.11,13.77,12.68,27.21,17,39.07,17,19.12,0,34.13-11.25,39.75-16.87,1.68-1.69,1.64-4.4-.1-6.03-13.16-12.28-26.39-16.47-38.25-16.47h0Z"/></g><ellipse class="cls-1" cx="106.03" cy="113.37" rx="17.4" ry="16.53"/><ellipse class="cls-3" cx="106.12" cy="113.5" rx="12.71" ry="11.99"/><ellipse class="cls-3" cx="106.12" cy="113.5" rx="6.46" ry="6.09"/></g><ellipse class="cls-4" cx="106.12" cy="113.5" rx="5.55" ry="5.24"/><path class="cls-7" d="M106.06,11l95.4,156.05H11L106.06,11m0-6h0c-2.09,0-4.03,1.09-5.12,2.88L5.88,163.93c-1.13,1.85-1.17,4.17-.11,6.06,1.06,1.89,3.06,3.06,5.23,3.06H201.46c2.17,0,4.17-1.17,5.23-3.07,1.06-1.89,1.02-4.21-.11-6.06L111.18,7.87c-1.09-1.78-3.03-2.87-5.12-2.87h0Z"/></svg>