<?xml version="1.0" encoding="UTF-8"?><svg id="Layer_1" xmlns="http://www.w3.org/2000/svg" viewBox="0 0 204.6 192.67"><defs><style>.cls-1{stroke:#f7ec13;stroke-width:6px;}.cls-1,.cls-2{fill:#b9529f;stroke-linecap:round;stroke-linejoin:round;}.cls-2{stroke:#6fccdd;stroke-width:3px;}</style></defs><polygon points="98.38 25.94 135.17 0 187.22 16.79 196.03 33 204.6 97.4 156.35 147.32 114.59 183.35 98.71 192.67 46.64 154.91 3.44 112.4 0 45.82 46.69 4.45 76.32 10.99 98.38 25.94"/><polygon class="cls-2" points="67.23 137.25 86.28 55.99 132.88 102.58 67.23 137.25"/><polygon class="cls-2" points="145.51 15.36 86.28 55.99 132.88 102.58 145.51 15.36"/><polygon class="cls-2" points="174.89 96.3 132.88 102.58 145.51 15.36 174.89 96.3"/><polygon class="cls-2" points="190.27 37.39 145.51 15.36 174.89 96.3 190.27 37.39"/><polygon class="cls-2" points="182.92 23.16 145.51 15.36 190.27 37.39 182.92 23.16"/><polygon class="cls-2" points="136.78 7.55 182.92 23.16 145.51 15.36 136.78 7.55"/><polygon class="cls-2" points="86.28 55.99 136.78 7.55 145.51 15.36 86.28 55.99"/><polygon class="cls-2" points="80.77 47.49 136.78 7.55 86.28 55.99 80.77 47.49"/><polygon class="cls-2" points="72.97 17.19 97.48 35.58 94.01 38.06 48.87 11.46 72.97 17.19"/><polygon class="cls-2" points="48.87 11.46 94.01 38.06 80.77 47.49 48.87 11.46"/><polygon class="cls-2" points="30.05 41.3 48.87 11.46 80.77 47.49 30.05 41.3"/><polygon class="cls-2" points="86.28 55.99 30.05 41.3 80.77 47.49 86.28 55.99"/><polygon class="cls-2" points="67.23 137.25 30.05 41.3 86.28 55.99 67.23 137.25"/><polygon class="cls-2" points="10.08 109.7 30.05 41.3 67.23 137.25 10.08 109.7"/><polygon class="cls-2" points="7.78 48.64 30.05 41.3 10.08 109.7 7.78 48.64"/><polygon class="cls-2" points="48.87 11.46 30.05 41.3 7.78 48.64 48.87 11.46"/><polygon class="cls-2" points="50.7 149.64 10.08 109.7 67.23 137.25 50.7 149.64"/><polygon class="cls-2" points="86.28 156.99 67.23 137.25 50.7 149.64 86.28 156.99"/><polygon class="cls-2" points="132.88 102.58 86.28 156.99 67.23 137.25 132.88 102.58"/><polygon class="cls-2" points="197.38 94.78 190.27 37.39 174.89 96.3 197.38 94.78"/><polygon class="cls-2" points="110.84 178.1 132.88 102.58 86.28 156.99 110.84 178.1"/><polygon class="cls-2" points="98.73 184.53 86.28 156.99 50.7 149.64 98.73 184.53"/><polygon class="cls-2" points="98.73 184.53 86.28 156.99 110.84 178.1 98.73 184.53"/><polygon class="cls-2" points="150.79 134.26 174.89 96.3 132.88 102.58 150.79 134.26"/><polygon class="cls-2" points="110.84 178.1 150.79 134.26 132.88 102.58 110.84 178.1"/><polygon class="cls-2" points="197.38 94.78 150.79 134.26 174.89 96.3 197.38 94.78"/><polygon class="cls-2" points="153.88 140.34 150.79 134.26 197.38 94.78 153.88 140.34"/><polygon class="cls-2" points="110.84 178.1 153.88 140.34 150.79 134.26 110.84 178.1"/><polyline class="cls-1" points="192.56 92.03 184.04 95.88 174.89 96.3 168.6 108.04 167.89 96.62 163.76 77.23 162.61 96.62 150.79 134.26 152.19 99.69 146.26 58.97 142.61 101.13 138.42 113 132.88 102.58 128.03 83.64 125.08 94.78 78.48 89.27 51.61 96.94 15.76 90.24 11.49 87.64"/></svg>