<?xml version="1.0" encoding="UTF-8"?><svg id="Layer_1" xmlns="http://www.w3.org/2000/svg" viewBox="0 0 200.55 179.39"><defs><style>.cls-1{fill:#f7ec13;}.cls-2,.cls-3{fill:#b9529f;}.cls-4{fill:#231f20;}.cls-5{fill:#6fccdd;}.cls-3{stroke:#6fccdd;stroke-miterlimit:10;stroke-width:4px;}</style></defs><polygon class="cls-4" points="50.69 0 150.35 0 155.82 9.66 200.06 87.7 150.35 175.4 50.69 175.4 .98 87.7 50.69 0"/><path class="cls-4" d="M0,9.93H45.14s-14.47,31.47-14.47,31.47c0,0-11.58-1.35-13.18-10.1,0,0-14.49,.58-17.49-21.38Z"/><path class="cls-4" d="M200.55,9.93h-46.14l17.47,31.47s11.58-1.35,13.18-10.1c0,0,15.49,.58,15.49-21.38Z"/><g><path class="cls-2" d="M52.07,116.46V58.94l48.45-28.8,48.45,28.8v57.53l-48.45,28.8-48.45-28.8Zm48.45,22.55l43.12-25.64V62.03l-43.12-25.64-43.12,25.64v51.35l43.12,25.64Z"/><path class="cls-5" d="M100.52,31.88l46.95,27.91v55.82l-46.95,27.91-46.95-27.91V59.79l46.95-27.91m0,108.87l44.62-26.53V61.17l-44.62-26.53-44.62,26.53v53.05l44.62,26.53m0-112.36l-1.53,.91-46.95,27.91-1.47,.87v59.23l1.47,.87,46.95,27.91,1.53,.91,1.53-.91,46.95-27.91,1.47-.87V58.08l-1.47-.87-46.95-27.91-1.53-.91h0ZM58.9,62.88l41.62-24.74,41.62,24.74v49.64l-41.62,24.74-41.62-24.74V62.88h0Z"/></g><g><path class="cls-2" d="M72.2,104.5v-33.6l28.32-16.84,28.32,16.84v33.6l-28.32,16.84-28.32-16.84Zm28.32,11.77l23.99-14.26v-28.6l-23.99-14.26-23.99,14.26v28.6l23.99,14.26Z"/><path class="cls-5" d="M100.52,55.81l26.82,15.95v31.89l-26.82,15.95-26.82-15.95v-31.89l26.82-15.95m0,62.2l25.49-15.16v-30.31l-25.49-15.16-25.49,15.16v30.31l25.49,15.16m0-65.69l-1.53,.91-26.82,15.95-1.47,.87v35.3l1.47,.87,26.82,15.95,1.53,.91,1.53-.91,26.82-15.95,1.47-.87v-35.3l-1.47-.87-26.82-15.95-1.53-.91h0Zm-22.49,21.93l22.49-13.37,22.49,13.37v26.9l-22.49,13.37-22.49-13.37v-26.9h0Z"/></g><path class="cls-3" d="M145.98,7.69H55.06L9.71,87.7l45.35,80.01h90.92l45.35-80.01L145.98,7.69Zm-2.08,135.77l-17.89-10.21-.05,20.7h-50.76l-.13-20.61-17.84,10.28-25.79-45.51,17.84-10.41-17.86-10.37L63.08,21.45h74.88l31.65,55.83-17.83,10.41,17.86,10.37-25.73,45.39Z"/><g><g><path class="cls-2" d="M96.73,47.88c-.16,0-.31-.08-.41-.21l-.33-.47c-.16-.23-.86-.99-1.55-1.67-.96-.96-1.49-1.35-2.47-1.84-2.15-1.04-4.84-1.53-8.46-1.53-3.34,0-5.61-.43-7.81-1.47-3.77-1.79-6.35-4.95-7.26-8.89-.17-.75-.26-2.06-.28-3.9-.03-2.64-.05-2.68-.4-3.33-.39-.74-1.09-1.45-1.78-1.81-.4-.21-.65-.33-1.73-.33-1.5,0-4.66,.26-10.94,.78-13.56,1.14-23.29,1.97-26.71,2.29-2.57,.23-4.53,.35-6.01,.35-1.12,0-1.94-.07-2.49-.2-2.79-.65-5.6-2.72-7.52-5.53-.72-1.08-1.61-2.93-1.87-3.9l-.16-.58c-.04-.15,0-.31,.09-.43s.24-.2,.4-.2l32.77,.03,32.78,.05c.06,0,.12,.01,.17,.03l.92,.34c2.92,1.1,5.37,3.77,6.26,6.78,.41,1.42,.35,3.38-.15,5.25-.52,1.94-.64,4.03-.3,5.2,.87,2.99,3.4,5.02,6.6,5.28,.21,.02,.42,.03,.62,.03,3.13,0,5.82-2.01,6.87-5.11,.23-.69,.37-1.21,.38-1.33,.02-.26,.26-.55,.52-.55,.48,0,.54,.45,.62,1.03,.1,.62,.14,5.9,.15,8.13v7.21c0,.22-.14,.41-.35,.48-.05,.02-.1,.02-.15,.02Z"/><path class="cls-1" d="M9.02,15.49l32.77,.03,32.78,.05,.92,.34c2.77,1.05,5.11,3.57,5.95,6.46,.38,1.3,.33,3.18-.16,4.98-.55,2.05-.66,4.22-.3,5.47,.92,3.18,3.64,5.36,7.04,5.64,.22,.02,.44,.03,.66,.03,3.33,0,6.21-2.1,7.35-5.45,.22-.64,.41-1.3,.41-1.47,0-.04,0-.06,.02-.06,.03,0,.08,.23,.12,.6,.08,.47,.13,4.11,.14,8.07v7.21l-.33-.47c-.19-.27-.91-1.05-1.61-1.74-1-1-1.58-1.43-2.6-1.93-2.23-1.08-4.95-1.58-8.68-1.58-3.26,0-5.48-.42-7.6-1.43-3.62-1.72-6.11-4.78-6.99-8.56-.16-.69-.25-1.97-.27-3.79-.03-2.66-.05-2.79-.45-3.56-.44-.83-1.21-1.61-1.99-2.02-.49-.25-.81-.39-1.96-.39-1.5,0-4.42,.24-10.98,.78-14.35,1.21-23.47,1.99-26.72,2.29-2.51,.23-4.5,.34-5.96,.34-1.07,0-1.86-.06-2.37-.19-2.7-.63-5.37-2.62-7.22-5.33-.67-1-1.55-2.81-1.8-3.75l-.16-.58m0-1c-.31,0-.6,.14-.79,.39-.19,.25-.25,.57-.17,.87l.16,.58c.3,1.13,1.26,3.04,1.94,4.04,1.99,2.92,4.92,5.07,7.83,5.74,.58,.14,1.44,.21,2.6,.21,1.49,0,3.47-.11,6.05-.35,3.45-.32,13.18-1.15,26.71-2.29,6.27-.52,9.42-.78,10.9-.78,.96,0,1.14,.09,1.5,.28,.6,.31,1.22,.94,1.56,1.6,.3,.57,.31,.58,.34,3.1,.02,1.88,.11,3.22,.29,4,.95,4.1,3.63,7.38,7.53,9.24,2.25,1.07,4.65,1.52,8.03,1.52,3.54,0,6.16,.47,8.24,1.48,.92,.45,1.42,.83,2.33,1.74,.73,.71,1.38,1.43,1.5,1.61l.33,.47c.19,.27,.5,.43,.82,.43,.1,0,.2-.02,.3-.05,.42-.13,.7-.52,.7-.95v-7.21c-.01-3.42-.05-7.61-.15-8.23-.07-.51-.19-1.43-1.11-1.43h0c-.46,0-.96,.34-1.01,.98,0,0,0,.02,0,.03-.02,.12-.14,.58-.36,1.21-.98,2.9-3.49,4.77-6.4,4.77-.19,0-.38,0-.58-.02-2.99-.25-5.35-2.13-6.16-4.92-.31-1.08-.18-3.1,.3-4.93,.53-1.96,.58-4.02,.15-5.52-.93-3.17-3.5-5.96-6.56-7.11l-.93-.35c-.11-.04-.23-.06-.35-.06l-32.78-.05-32.77-.03h0Z"/></g><g><path class="cls-2" d="M105.08,47.6q-.67,0-.67-8.05t.65-7.97c.2,0,.4,.14,.48,.32,.79,1.9,1.56,3.24,2.3,3.99,1.32,1.33,3.26,2.13,5.19,2.13,.58,0,1.14-.07,1.68-.21,3.29-.87,5.67-3.74,5.67-6.83,0-.62-.18-1.84-.46-3.02-1.04-4.52-.37-7.35,2.39-10.07,1.47-1.47,2.51-2.09,4.27-2.56,.86-.22,1.58-.32,3.88-.32,1.68,0,4.27,.05,8.45,.14l15.98,.31c37.78,.71,37.92,.85,38.06,.99,.18,.18,.28,.39-.16,1.41-1.18,3.01-3.16,5.27-5.9,6.69-1.78,.93-3.39,1.31-5.57,1.31-.94,0-7.6-.51-15.49-1.18l-9.57-.81c-4.53-.38-8.6-.73-10.74-.91-3.63-.3-6.9-.6-7.25-.65-.09-.01-.2-.02-.31-.02-.75,0-1.85,.24-2.45,.54-.21,.11-.68,.49-.98,.81-.97,1.08-.99,1.1-1.09,4.55-.09,2.85-.14,3.39-.54,4.61-1.52,4.61-5.42,8.05-10.19,8.97-.68,.13-2.83,.31-4.78,.38-3.62,.16-4.38,.25-6.31,.78-2.42,.66-4.5,2.16-6.02,4.35-.05,.08-.21,.3-.51,.3Z"/><path class="cls-1" d="M130.46,15.51c1.69,0,4.27,.05,8.44,.14,3.92,.08,11.11,.22,15.98,.31,17.54,.33,37.66,.78,37.72,.85,.03,.03-.08,.42-.27,.86-1.14,2.93-3.04,5.08-5.67,6.44-1.71,.89-3.24,1.25-5.34,1.25-.96,0-7.9-.53-15.45-1.18-7.55-.64-16.69-1.41-20.31-1.72-3.62-.3-6.88-.6-7.22-.64-.11-.02-.24-.02-.38-.02-.81,0-1.99,.25-2.67,.59-.3,.16-.81,.58-1.13,.92-1.07,1.19-1.11,1.33-1.22,4.87-.09,2.88-.14,3.34-.52,4.47-1.47,4.47-5.19,7.74-9.81,8.63-.64,.13-2.76,.3-4.7,.38-3.65,.16-4.43,.25-6.42,.8-2.52,.69-4.72,2.27-6.3,4.54-.04,.05-.07,.09-.1,.09-.16,0-.17-1.23-.17-7.55,0-5.27,.04-7.47,.15-7.47,0,0,.01,0,.02,.02,.81,1.96,1.61,3.34,2.4,4.14,1.45,1.46,3.51,2.28,5.54,2.28,.61,0,1.22-.07,1.81-.23,3.51-.92,6.05-3.98,6.05-7.32,0-.66-.19-1.91-.47-3.13-1-4.36-.39-6.99,2.26-9.61,1.43-1.43,2.38-1.99,4.04-2.43,.79-.21,1.46-.3,3.75-.3m0-1c-2.35,0-3.1,.1-4,.33-1.86,.49-2.95,1.14-4.5,2.69-2.9,2.87-3.61,5.82-2.52,10.54,.26,1.13,.44,2.33,.44,2.91,0,2.87-2.23,5.54-5.3,6.35-.49,.13-1.02,.19-1.55,.19-1.8,0-3.6-.74-4.83-1.98-.69-.7-1.42-1.99-2.18-3.82-.15-.37-.54-.64-.94-.64,0,0,0,0,0,0-.26,0-.53,.11-.71,.3-.4,.4-.44,.44-.44,8.17,0,3.4,0,5.1,.03,6.17,.03,1.33,.05,2.38,1.14,2.38,.25,0,.62-.09,.92-.52,1.45-2.09,3.44-3.52,5.74-4.15,1.9-.52,2.6-.61,6.2-.76,1.97-.08,4.14-.26,4.85-.39,4.94-.95,8.99-4.52,10.57-9.3,.43-1.28,.47-1.84,.57-4.75q.1-3.27,.97-4.24c.26-.29,.69-.62,.85-.71,.51-.25,1.53-.47,2.21-.47,.09,0,.17,0,.24,.01,.42,.06,3.86,.37,7.28,.65,2.13,.18,6.17,.53,10.68,.91l9.63,.82c6.72,.57,14.45,1.18,15.54,1.18,2.27,0,3.95-.4,5.81-1.37,2.85-1.47,4.91-3.82,6.14-6.96,.32-.74,.55-1.42,.04-1.93q-.31-.31-4.14-.41c-2.17-.06-5.24-.13-8.86-.21-7.76-.17-17.26-.37-25.42-.52-4.87-.09-12.07-.24-15.98-.31-4.19-.09-6.77-.14-8.46-.14h0Z"/></g><g><path class="cls-2" d="M30.66,32.92c-2.14-.02-4.67-1-6.45-2.5-.53-.44-2.94-2.95-2.97-3.55,0-.14,.05-.3,.15-.4q.19-.19,24.07-2.24c5.94-.5,12.67-1.06,14.49-1.24,1.74-.16,2.77-.22,3.55-.22,1.03,0,1.7,.12,2.39,.42l.7,.32c.13,.06,.23,.18,.27,.32,.04,.14,.02,.29-.06,.41l-.28,.42c-.38,.59-1.82,3.04-1.93,3.27-.15,.3-.2,.4-6.16,1.23l-23.07,3.21c-1.9,.27-4.2,.55-4.69,.55h0Z"/><path class="cls-1" d="M63.5,23.27c1.03,0,1.61,.12,2.19,.38l.69,.31-.28,.42c-.36,.56-1.91,3.18-1.97,3.35-.03,.06-2.62,.49-5.77,.92-3.15,.44-8.74,1.22-12.46,1.74-3.7,.52-8.48,1.18-10.61,1.47-2.12,.3-4.2,.55-4.62,.55-2.01-.02-4.42-.94-6.13-2.38-.89-.74-2.91-3.09-2.79-3.21,.06-.06,8.84-.83,23.76-2.1,6.16-.52,12.69-1.07,14.5-1.24,1.6-.14,2.69-.22,3.5-.22m0-1c-.8,0-1.84,.06-3.59,.22-1.78,.17-8.14,.7-14.29,1.22l-.2,.02c-7.46,.63-13.39,1.14-17.45,1.5q-6.62,.58-6.93,.89c-.2,.2-.31,.49-.3,.77,.05,1.01,3.13,3.89,3.16,3.92,1.85,1.57,4.51,2.59,6.76,2.61,.64,0,3.4-.37,4.77-.56l3.8-.53c2.15-.3,4.66-.64,6.8-.95l6.93-.97,5.53-.77c6.22-.87,6.24-.9,6.52-1.47,0-.02,.02-.03,.02-.05,.16-.32,1.54-2.65,1.9-3.21l.27-.41c.16-.24,.21-.55,.13-.83-.08-.28-.28-.51-.55-.64l-.69-.31c-.77-.34-1.49-.47-2.6-.47h0Z"/></g><g><path class="cls-2" d="M171.38,32.91c-1.28,0-3.7-.34-11.73-1.47l-1.78-.25c-7.4-1.04-12.81-1.79-16.89-2.33q-3.7-.49-3.84-.79c-.22-.36-2.34-3.82-2.34-4.14,0-.55,1.2-.92,2.2-1.13,.24-.06,.45-.09,.77-.09,.35,0,.81,.04,1.81,.13,.91,.08,6.72,.58,12.92,1.1,12.62,1.06,21.13,1.79,24.61,2.12,1,.1,2.37,.23,2.51,.23,.38,0,.54,.21,.6,.34,.2,.41-.05,.78-.81,1.75-1.67,2.08-4.09,3.69-6.46,4.3l-.12,.03c-.45,.12-.8,.21-1.45,.21h0Z"/><path class="cls-1" d="M137.76,23.2c.33,0,.82,.04,1.77,.13,.91,.08,6.72,.58,12.93,1.1,13.1,1.1,21.28,1.8,24.6,2.12,1.3,.13,2.44,.24,2.55,.24,.33,0,.2,.27-.6,1.28-1.6,1.99-3.93,3.54-6.19,4.12-.51,.13-.81,.22-1.44,.22-1.33,0-4.13-.41-13.44-1.71-7.91-1.11-12.99-1.82-16.89-2.33-1.88-.25-3.45-.49-3.46-.52-.72-1.18-2.29-3.85-2.29-3.92,0-.09,1.13-.5,1.8-.64,.23-.06,.4-.08,.66-.08m0-1c-.36,0-.61,.04-.9,.11-2.57,.54-2.57,1.32-2.57,1.61,0,.23,0,.47,2.41,4.4,.25,.49,.35,.51,4.21,1.02,4.14,.55,9.53,1.3,16.89,2.33l1.8,.25c8.04,1.13,10.47,1.47,11.78,1.47,.71,0,1.11-.1,1.58-.23l.12-.03c2.47-.64,4.99-2.3,6.72-4.46,.74-.95,1.23-1.56,.87-2.29-.19-.39-.59-.62-1.06-.62-.15,0-1.54-.14-2.46-.23-3.43-.32-11.94-1.06-24.62-2.12-6.11-.51-11.85-1-12.88-1.09-1.06-.1-1.52-.14-1.89-.14h0Z"/></g><g><path class="cls-2" d="M100.79,29.65c-2.12,0-7.13-.03-7.75-.28-.6-.26-1.08-.79-1.32-1.46-.26-.72-.21-1.5,.12-2.15,.44-.86,1.1-1.07,2.41-1.21,.56-.06,3.15-.1,6.15-.1h1.37q6.49,.02,7.18,.46c.81,.5,1.28,1.33,1.24,2.23-.03,.92-.58,1.74-1.46,2.19-.5,.26-4.59,.32-7.94,.32h0Z"/><path class="cls-1" d="M100.39,24.96c.45,0,.91,0,1.37,0,6.3,.02,6.35,.02,6.91,.38,1.43,.88,1.33,2.77-.17,3.56-.33,.17-4.03,.26-7.71,.26s-7.17-.08-7.57-.24c-1.02-.44-1.49-1.86-.94-2.91,.31-.61,.71-.8,2.02-.94,.53-.05,3.13-.1,6.09-.1m0-1c-2.58,0-5.54,.04-6.2,.1-1.23,.13-2.22,.32-2.81,1.48-.4,.76-.45,1.69-.15,2.54,.29,.8,.86,1.44,1.58,1.75,.54,.22,3.22,.33,7.97,.33,7.46,0,7.94-.25,8.17-.37,1.04-.54,1.68-1.52,1.72-2.62,.04-1.08-.52-2.08-1.49-2.68q-.79-.51-7.43-.52c-.47,0-.92,0-1.37,0h0Z"/></g><g><path class="cls-2" d="M96.52,52.77c-.27,0-.3,0-1.36-1.32-1.01-1.3-1.93-2.13-3.19-2.88q-1.61-.98-9.5-1.09c-8.08-.11-8.23-.11-10.82-1.44-3.66-1.9-6.54-5.76-7.4-9.89-.75-3.67,.03-7.62,2.03-10.31l.51-.7c.1-.13,.25-.2,.4-.2,.05,0,.1,0,.15,.02,.2,.06,.35,.25,.35,.46l.09,2.98c.09,3.29,.26,4.11,1.25,6.23,1.41,2.94,3.58,5.06,6.62,6.5,1.68,.79,3.2,1.12,6.04,1.29,6.96,.43,8.11,.62,10.22,1.67,1.98,.98,3.42,2.63,4.27,4.88,.01,.03,1.03,2.71,.75,3.52h.02c-.03,.07-.07,.12-.11,.16h-.01c-.09,.09-.21,.13-.33,.13h0Z"/><path class="cls-1" d="M67.21,25.45l.09,2.98c.09,3.4,.28,4.26,1.3,6.42,1.44,3.01,3.7,5.25,6.86,6.74,1.72,.81,3.29,1.16,6.22,1.33,6.86,.42,7.98,.6,10.03,1.61,1.86,.92,3.23,2.49,4.03,4.61,.38,.99,.89,3.04,.78,3.13,0,0,0,0,0,0-.04,0-.47-.51-.97-1.13-1.03-1.33-2.01-2.21-3.32-2.99-1.72-1.05-1.71-1.05-9.75-1.16-8.2-.11-8.12-.11-10.67-1.43-3.45-1.79-6.24-5.55-7.07-9.51-.72-3.53,.02-7.32,1.94-9.9l.52-.71m0-1c-.31,0-.61,.15-.81,.41l-.52,.71c-2.08,2.79-2.89,6.89-2.12,10.7,.9,4.27,3.87,8.27,7.59,10.2l.08,.04c2.69,1.39,2.85,1.39,11.04,1.5q7.75,.11,9.23,1.01c1.22,.73,2.1,1.52,3.06,2.76,1.06,1.32,1.22,1.52,1.76,1.52,.24,0,.47-.09,.65-.24h0s.01-.01,.02-.02c.09-.08,.17-.18,.23-.3h-.02c.4-.99-.4-3.08-.73-3.93-.9-2.37-2.42-4.11-4.52-5.15-2.29-1.14-3.67-1.3-10.41-1.72-2.76-.16-4.24-.47-5.86-1.24-2.94-1.38-5.03-3.43-6.39-6.27-.92-1.95-1.11-2.63-1.2-6.02l-.09-2.98c-.01-.43-.3-.8-.7-.92-.1-.03-.2-.04-.3-.04h0Z"/></g><g><path class="cls-2" d="M105.13,52.62c-.16,0-.33-.09-.43-.21-.22-.28-.14-.62,.19-1.88,.78-3.02,2.45-5.29,4.68-6.39,2.25-1.12,3.22-1.28,10.33-1.73,2.8-.17,4.32-.48,6-1.26,4.02-1.86,6.83-5.38,7.71-9.66,.16-.74,.24-1.94,.24-3.58l.02-2.48c0-.21,.13-.4,.33-.47,.06-.02,.11-.03,.17-.03,.15,0,.29,.06,.38,.18l.39,.47c.63,.76,1.3,2.02,1.76,3.28,2.3,6.46-.96,14.22-7.25,17.31-2.4,1.18-2.56,1.18-10.64,1.3h-.61q-6.95,.1-8.54,.95l-.2,.11c-.94,.5-2.57,1.99-3.55,3.27-.44,.56-.65,.81-.97,.81h0Z"/><path class="cls-1" d="M134.37,25.45l.39,.47c.6,.72,1.24,1.93,1.68,3.13,2.23,6.25-.89,13.7-7,16.69-2.3,1.13-2.32,1.13-10.44,1.25-7.96,.11-7.62,.08-9.57,1.11-1,.53-2.68,2.07-3.71,3.4-.31,.39-.5,.61-.58,.61-.12,0-.02-.44,.25-1.46,.75-2.9,2.3-5.03,4.42-6.06,2.18-1.08,3.17-1.24,10.14-1.68,2.9-.17,4.43-.5,6.17-1.3,4.17-1.93,7.08-5.58,7.99-10.01,.17-.8,.25-2.05,.25-3.68l.02-2.48m0-1c-.11,0-.23,.02-.34,.06-.4,.14-.66,.52-.66,.94l-.02,2.48c0,1.61-.08,2.78-.23,3.48-.85,4.13-3.56,7.52-7.43,9.32-1.64,.75-3.05,1.05-5.81,1.21-6.85,.43-8.12,.59-10.52,1.78-2.36,1.16-4.12,3.54-4.94,6.71-.35,1.32-.48,1.82-.1,2.31,.19,.25,.51,.4,.82,.4,.58,0,.91-.42,1.36-.99,.94-1.21,2.52-2.67,3.4-3.14l.2-.11q1.48-.79,8.32-.88h.6c8.2-.13,8.36-.14,10.86-1.36,6.52-3.19,9.89-11.23,7.51-17.92-.49-1.34-1.18-2.63-1.85-3.44l-.39-.47c-.19-.23-.48-.36-.77-.36h0Z"/></g><g><path class="cls-2" d="M41.31,39.01c-.27,0-.5-.02-.79-.04-2.91-.25-5.65-1.74-7.51-4.11l-.63-.78c-.1-.13-.13-.3-.09-.45,.05-.16,.16-.28,.32-.33l.36-.12c.48-.16,13.13-1.96,20.53-2.97,2.58-.34,5.83-.8,7.2-1,0,0,2.56-.38,2.63-.39,.03,0,.05,0,.08,0,.17,0,.35,.08,.44,.21,.2,.26,.14,.62,.09,.82-.03,.19-.16,1.18-.25,2.24-.09,.99-.2,1.98-.23,2.09-.04,.25-.18,.5-1.43,.75-.38,.08-2.42,.5-5.06,1.06l-4.07,.85c-8.82,1.85-10.41,2.18-11.59,2.18h0Z"/><path class="cls-1" d="M63.43,29.3c.06,0,.09,.17,.03,.41-.05,.25-.17,1.28-.27,2.32-.09,1.03-.2,1.96-.22,2.04-.02,.09-.49,.25-1.03,.36-.55,.11-4.5,.94-8.76,1.83-9.02,1.89-10.73,2.25-11.87,2.25-.25,0-.48-.02-.74-.04-2.76-.24-5.39-1.68-7.16-3.92l-.63-.78,.36-.13c.38-.13,11.91-1.79,20.43-2.95,2.59-.34,5.83-.8,7.21-1,1.38-.2,2.57-.38,2.65-.39m0-1c-.06,0-.12,0-.18,.02-.09,.02-.57,.09-1.22,.18l-1.39,.2c-1.4,.21-4.62,.66-7.19,1-5.72,.78-20.01,2.79-20.62,2.99l-.37,.13c-.31,.11-.54,.36-.63,.67-.09,.31-.02,.65,.18,.9l.63,.78c1.95,2.46,4.81,4.03,7.86,4.29,.29,.02,.54,.04,.83,.04,1.23,0,2.83-.33,11.7-2.19l.38-.08,3.54-.74c2.72-.57,4.82-1.01,5.21-1.09,1.07-.21,1.71-.47,1.82-1.18,.03-.13,.14-1.17,.23-2.11,.1-1.05,.21-1.97,.25-2.2,.07-.3,.13-.8-.18-1.21-.19-.25-.51-.41-.83-.41h0Z"/></g><g><path class="cls-2" d="M160.08,38.92q-1.66-.01-13.31-2.49l-8.21-1.75c-.21-.04-.37-.22-.39-.43l-.27-2.26c-.2-1.78-.27-2.4-.27-2.53-.02-.13,.04-.31,.15-.44,.09-.1,.24-.21,.51-.21,.07,0,.16,0,.27,.03,.47,.11,7.42,1.08,15.13,2.14,5.5,.75,14.43,2.01,14.95,2.18,.14,.04,.44,.14,.53,.46,.11,.38-.1,.61-.78,1.4-2.43,2.8-4.66,3.89-7.96,3.89h-.35Z"/><path class="cls-1" d="M138.3,29.31s.11,0,.18,.02c.34,.09,6.42,.94,15.15,2.15,7.68,1.05,14.48,2.04,14.86,2.16,.34,.11,.33,.14-.47,1.07-2.32,2.67-4.43,3.71-7.58,3.71-.05,0-.09,0-.14,0-1.88-.02-1.32,.09-14.42-2.7l-7.21-1.54-.27-2.26c-.14-1.24-.27-2.35-.27-2.48-.01-.1,.04-.15,.16-.15m0-1c-.48,0-.76,.24-.89,.38-.2,.23-.3,.52-.28,.83,0,.17,.05,.63,.27,2.53l.27,2.26c.05,.43,.37,.77,.78,.86l7.21,1.54,1.01,.22q11.7,2.49,13.41,2.5h.2s.15,0,.15,0c3.42,0,5.84-1.18,8.34-4.06,.73-.85,1.07-1.23,.89-1.87-.16-.58-.7-.75-.87-.81-.73-.24-14.44-2.12-15.02-2.2-5.76-.8-14.47-2-15.05-2.13-.03,0-.03,0-.05-.01-.13-.03-.25-.04-.36-.04h0Z"/></g><g><path class="cls-2" d="M98.28,75.21q-.78,0-.78-22.58V30.54c0-.28,.22-.5,.5-.5h5.66c.13,0,.26,.05,.35,.15,.09,.09,.15,.22,.15,.35l-.09,42.86c0,.23-.15,.42-.37,.48l-2.51,.66c-.43,.11-2.6,.67-2.9,.67h0Z"/><path class="cls-1" d="M103.66,30.54l-.05,21.42-.05,21.44-2.51,.66c-1.38,.36-2.63,.66-2.77,.66,0,0,0,0,0,0-.26,0-.28-1.26-.28-22.08V30.54h5.66m0-1h-5.66c-.55,0-1,.45-1,1v22.1c0,10.62,0,15.94,.04,18.86,.02,1.44,.04,2.3,.09,2.78,.08,.95,.47,1.44,1.15,1.44,0,0,.01,0,.02,0,0,0,.01,0,.02,0,0,0,.02,0,.02,0h0c.17-.01,.7-.1,2.97-.69l2.51-.66c.44-.12,.75-.51,.75-.97l.05-21.44,.05-21.42c0-.27-.1-.52-.29-.71-.19-.19-.44-.29-.71-.29h0Z"/></g><g><path class="cls-2" d="M52.12,44.13c-1.8,0-3.72-.56-5.41-1.56-.49-.3-2.99-1.98-3.03-2.82,0-.17,.09-.39,.22-.49,.29-.19,1.29-.44,10.9-2.47,2.91-.6,5.86-1.23,6.57-1.39,.42-.1,1.42-.33,1.6-.33,.81,0,2.07,4.86,2.08,4.9,.09,.45-.17,.61-.29,.66-.08,.07-10.32,3.15-10.43,3.18-.7,.2-1.45,.31-2.23,.31h0Z"/><path class="cls-1" d="M62.98,35.57c.13,0,1.71,4.56,1.6,4.61-.05,.03-9.32,2.85-10.37,3.17-.66,.19-1.36,.29-2.08,.29-1.7,0-3.52-.52-5.16-1.49-1.39-.85-3.01-2.29-2.76-2.48,.22-.14,2.99-.75,10.7-2.38,2.88-.6,5.85-1.22,6.58-1.39,.74-.17,1.41-.31,1.49-.31,0,0,0,0,0,0m0-1h0c-.08,0-.27,0-1.72,.34-.72,.17-3.59,.78-6.56,1.39-10.61,2.24-10.73,2.32-11.04,2.52-.02,.01-.04,.03-.06,.04-.28,.21-.44,.55-.42,.91,.06,1.26,3.23,3.2,3.26,3.22,1.77,1.06,3.78,1.64,5.67,1.64,.83,0,1.63-.11,2.37-.33,.1-.03,9.11-2.72,10.48-3.22v.02s.08-.03,.14-.07c.01,0,.02-.01,.03-.01h0c.22-.15,.55-.49,.42-1.14-.12-.58-.77-2.43-.84-2.64-.77-2.21-.94-2.67-1.73-2.67h0Z"/></g><g><path class="cls-2" d="M149.7,44.14c-1.14,0-2.37-.3-4.37-.9-8.41-2.55-8.49-2.6-8.57-2.65-.29-.28-.36-.35,.31-2.26,.32-.96,.62-1.93,.71-2.25,.12-.44,.26-.99,.85-.99,.08,0,.17,.01,.28,.04,0,0,5.16,1.09,7.84,1.66,1.04,.22,10.21,2.13,10.73,2.35,.3,.13,.39,.33,.41,.48,.07,.42-.23,.7-1.11,1.52-1.55,1.43-3.58,2.47-5.58,2.85-.59,.11-1.05,.15-1.51,.15h0Z"/><path class="cls-1" d="M138.63,35.59s.09,0,.15,.03c.38,.08,4.14,.88,7.87,1.66,6.16,1.28,10.37,2.21,10.64,2.32,.25,.11,.13,.27-.85,1.18-1.47,1.36-3.45,2.37-5.33,2.73-.51,.09-.96,.14-1.42,.14-1.02,0-2.13-.25-4.22-.88-5.28-1.6-8.38-2.55-8.43-2.59-.03-.03,.19-.78,.5-1.68,.3-.89,.63-1.93,.72-2.29,.12-.47,.19-.62,.36-.62m0-1c-.97,0-1.21,.92-1.33,1.37-.08,.31-.39,1.28-.7,2.23-.62,1.77-.75,2.21-.26,2.7,.05,.05,.1,.09,.15,.12,.15,.1,.22,.14,8.7,2.71,2.05,.61,3.31,.92,4.51,.92,.49,0,.98-.05,1.6-.16,2.1-.4,4.22-1.49,5.83-2.98,.95-.89,1.38-1.29,1.26-1.97-.03-.18-.16-.62-.7-.85-.55-.23-8.43-1.88-10.84-2.38-2.56-.54-5.13-1.08-6.61-1.4l-1.23-.26c-.09-.02-.23-.05-.38-.05h0Z"/></g><g><path class="cls-2" d="M139.28,48.71c-.63,0-1.21-.07-1.72-.2-.74-.18-5-1.96-5.49-2.3-.11-.08-.19-.2-.21-.34-.03-.24-.05-.35,1.28-1.59,.62-.59,1.51-1.57,1.93-2.13l.8-1.05c.1-.13,.24-.2,.4-.2,.05,0,.1,0,.15,.02l3.56,1.08q7.58,2.28,7.58,2.81c0,.7-2.51,2.27-2.62,2.34-1.6,.96-3.76,1.56-5.65,1.56h0Z"/><path class="cls-1" d="M136.27,41.4l3.56,1.08c5.52,1.66,7.22,2.21,7.22,2.33,0,.2-1.35,1.27-2.38,1.91-1.55,.93-3.63,1.48-5.39,1.48-.58,0-1.12-.06-1.6-.18-.72-.17-4.92-1.94-5.33-2.23-.03-.02,.47-.55,1.13-1.16,.66-.63,1.55-1.61,1.99-2.19l.8-1.05m0-1c-.31,0-.6,.14-.8,.39l-.8,1.05c-.41,.55-1.28,1.5-1.88,2.08-1.39,1.29-1.5,1.52-1.43,2.02,.04,.28,.19,.52,.42,.68h0s0,0,0,0c.02,.02,.05,.03,.07,.04,.79,.46,4.82,2.14,5.58,2.32,.53,.14,1.16,.21,1.83,.21,1.98,0,4.24-.62,5.91-1.63,2.87-1.78,2.87-2.52,2.87-2.77q0-.9-7.94-3.29l-3.55-1.08c-.1-.03-.19-.04-.29-.04h0Z"/></g><g><path class="cls-2" d="M62.16,48.72c-1.51,0-3.1-.4-4.73-1.2-.81-.4-3.22-1.92-3.34-2.63-.03-.16,.04-.38,.15-.49,.26-.26,7.27-2.38,8.67-2.8,.71-.21,1.93-.57,2.2-.57h0c.44,0,1.07,.66,1.52,1.22,.47,.6,1.35,1.54,1.94,2.1,1.23,1.17,1.23,1.23,1.23,1.45,0,.17-.09,.34-.23,.43-.49,.31-4.39,1.93-5.16,2.17-.71,.22-1.46,.33-2.23,.33h0Z"/><path class="cls-1" d="M65.11,41.52c.15,0,.66,.46,1.12,1.03,.47,.6,1.36,1.55,1.97,2.15,.63,.6,1.1,1.08,1.08,1.1-.42,.27-4.25,1.86-5.05,2.12-.66,.2-1.36,.3-2.08,.3-1.41,0-2.94-.38-4.51-1.15-1.28-.63-3.26-2.12-3.06-2.32,.08-.08,4.83-1.58,8.46-2.68,.99-.3,1.91-.55,2.05-.55,0,0,0,0,0,0m0-1s-.02,0-.03,0c-.13,0-.49,.04-2.32,.59-8.52,2.57-8.73,2.78-8.88,2.93-.24,.24-.35,.59-.29,.93,.2,1.2,3.58,2.98,3.62,3,1.7,.83,3.37,1.25,4.95,1.25,.83,0,1.62-.12,2.38-.35,.76-.24,4.71-1.86,5.29-2.23,.06-.04,.12-.09,.17-.14,.19-.19,.3-.45,.29-.72,0-.45-.12-.6-1.39-1.81-.55-.54-1.43-1.48-1.88-2.04-1.15-1.41-1.68-1.41-1.91-1.41h0Z"/></g><g><path class="cls-2" d="M96.76,60.11c-.18,0-.35-.1-.44-.26l-.6-1.1c-.85-1.58-2.39-3.06-3.92-3.76-1.41-.67-3.53-1.28-5.4-1.56-.65-.09-4.23-.23-8.32-.29-6.96-.11-7.27-.13-8.3-.48-1.32-.47-2.72-1.24-4.05-2.22l-.28-.2c-.39-.27-.73-.51-.69-.94,.05-.51,.47-.7,2.25-1.51l1.56-.7c1.23-.54,1.71-.76,1.92-.84h0s.1-.04,.16-.05c.01,0,.06,0,.07,0,.08,0,.23,0,1.1,.43,2.22,1.05,4.2,1.28,11.14,1.28s7.83,.12,9.81,1.62c2.33,1.76,4.02,5.22,4.4,9.03l.09,1.01c.02,.24-.13,.46-.35,.52-.05,.01-.1,.02-.15,.02Z"/><path class="cls-1" d="M70.72,46.69c.06,0,.45,.17,.87,.38,2.32,1.1,4.36,1.33,11.36,1.33s7.65,.11,9.51,1.52c2.21,1.66,3.84,5.03,4.2,8.68l.09,1-.6-1.1c-.89-1.66-2.52-3.23-4.15-3.98-1.46-.69-3.65-1.32-5.53-1.6-.71-.09-4.39-.24-8.38-.3-6.8-.11-7.18-.13-8.15-.45-1.24-.44-2.6-1.18-3.92-2.15-1.18-.86-1.39-.61,2.12-2.21,1.38-.61,2.54-1.13,2.57-1.13,0,0,0,0,0,0m0-1s-.03,0-.05,0c-.04,0-.08,0-.13,.02-.1,.02-.19,.05-.28,.09h0c-.29,.11-.8,.34-1.87,.81l-.66,.29-.94,.42c-1.9,.85-2.47,1.11-2.54,1.91-.07,.72,.47,1.09,.9,1.4,.08,.06,.18,.12,.28,.2,1.37,1.01,2.81,1.8,4.17,2.28,1.16,.39,1.71,.4,8.47,.51,3.96,.06,7.63,.2,8.27,.29,1.78,.27,3.89,.88,5.24,1.51,1.43,.66,2.91,2.08,3.7,3.55l.6,1.1c.18,.33,.52,.52,.88,.52,.1,0,.19-.01,.29-.04,.45-.14,.75-.58,.7-1.05l-.09-1c-.39-3.96-2.15-7.55-4.59-9.39-2.15-1.62-3.16-1.72-10.11-1.72s-8.78-.22-10.93-1.24c-.95-.47-1.14-.47-1.3-.47h0Z"/></g><g><path class="cls-2" d="M104.97,59.97c-.15,0-.3-.07-.4-.18-.2-.23-.21-.44,.07-2.26,.71-4.66,2.95-7.91,6.32-9.17,.95-.37,1.49-.38,8.11-.47,7.85-.09,7.95-.13,10.34-1.17,.29-.13,1.15-.5,1.45-.5,.13,.01,6.03,2.25,6.03,2.99s-3.04,2.57-3.07,2.59c-.54,.28-1.41,.64-1.97,.83-1.03,.36-1.34,.38-8.3,.5-4,.06-7.7,.21-8.32,.29-2.78,.41-5.79,1.49-7.15,2.59-.83,.68-1.77,1.92-2.27,3.02-.26,.57-.44,.94-.84,.94h0Z"/><path class="cls-1" d="M130.86,46.73c.34,.05,5.53,2.38,5.53,2.49,0,.2-1.93,1.68-2.81,2.15-.49,.25-1.33,.61-1.9,.8-.97,.34-1.35,.36-8.15,.47-3.92,.06-7.69,.2-8.38,.3-2.9,.42-5.97,1.55-7.4,2.7-.86,.71-1.86,2.01-2.41,3.2-.19,.42-.32,.65-.38,.65-.1,0-.04-.57,.16-1.87,.67-4.45,2.81-7.58,6-8.78,.85-.33,1.25-.34,7.94-.44,7.77-.09,8.02-.13,10.53-1.21,.58-.27,1.14-.45,1.25-.45m0-1c-.45,0-1.39,.42-1.67,.55-2.28,.98-2.37,1.02-10.13,1.12-6.71,.09-7.25,.1-8.3,.51-3.54,1.32-5.89,4.71-6.63,9.56-.28,1.78-.33,2.22,.05,2.66,.19,.22,.49,.36,.78,.36,.72,0,1.01-.62,1.29-1.23,.47-1.02,1.37-2.21,2.14-2.84,1.3-1.04,4.2-2.09,6.91-2.48,.6-.08,4.27-.22,8.26-.29,6.76-.11,7.31-.12,8.47-.53,.57-.19,1.47-.57,2.02-.85,.05-.02,3.35-1.89,3.35-3.04,0-.73-.12-.78-3.23-2.18-2.77-1.25-3.03-1.28-3.17-1.3-.04,0-.09,0-.14,0h0Z"/></g><g><path class="cls-2" d="M87.61,79.8s-.08,0-.12-.02l-1.03-.27c-3.53-.95-8.43-2.79-11.18-4.19-4.61-2.34-7.18-4.77-8.33-7.89-.29-.78-.38-1.39-.39-2.74,0-2.02,.38-3.33,1.4-4.83,1.77-2.66,6.32-4.67,11.59-5.12,.6-.05,1.4-.08,2.31-.08,1.24,0,2.53,.05,3.44,.14,3.21,.32,5.47,1.07,7.32,2.45,1.08,.81,1.57,1.67,1.78,3.06l.14,.91c.02,.15-.02,.29-.12,.41-.1,.11-.23,.17-.38,.17,0,0-3.4-.08-3.4-.08-.73-.01-1.44-.02-2.04-.02,.94,.27,2.18,.54,3.73,.78,1.32,.22,1.63,.37,1.63,.81,0,.21-.04,.34-.83,1.1-.82,.76-1.37,1.07-2.66,1.07-.39,0-.86-.03-1.62-.09-3.72-.34-5.82-1.1-8.35-3.03-1.66-1.27-2.18-1.51-3.23-1.51-.15,0-.31,0-.48,.01-1.37,.07-2.5,.56-3.17,1.38-.51,.62-.71,1.38-.59,2.2,.07,.49,.11,.61,1,1.49,2.38,2.34,7.7,4.31,19.63,7.3,1.81,.44,3.62,.92,3.88,1.02,.4,.15,.44,.44,.43,.56,0,.48-.36,.6-1.87,1.1-2.45,.83-5.28,2.07-6.88,3.03l-1.36,.81c-.08,.05-.17,.07-.26,.07Z"/><path class="cls-1" d="M81.85,55.17c1.19,0,2.46,.05,3.39,.14,3.15,.31,5.3,1.03,7.07,2.35,.96,.72,1.39,1.46,1.58,2.73l.14,.91-3.38-.08c-.77-.01-1.52-.02-2.15-.02-.89,0-1.55,.02-1.7,.05-.45,.08-.42,.09,.5,.52,.96,.42,2.59,.83,4.95,1.21,.66,.11,1.21,.25,1.21,.31s-.31,.39-.67,.74c-.75,.7-1.2,.93-2.31,.93-.42,0-.92-.03-1.58-.09-3.6-.33-5.64-1.07-8.09-2.93-1.7-1.3-2.32-1.61-3.53-1.61-.16,0-.33,0-.51,.01-2.77,.14-4.56,1.9-4.23,4.15,.09,.66,.24,.88,1.14,1.77,2.46,2.41,7.77,4.4,19.85,7.43,1.91,.47,3.62,.92,3.82,1,.3,.11,.08,.22-1.41,.72-2.51,.85-5.37,2.12-6.97,3.07l-1.36,.81-1.03-.27c-3.42-.92-8.34-2.76-11.08-4.15-4.48-2.27-6.99-4.64-8.09-7.62-.27-.72-.34-1.27-.36-2.57,0-1.9,.34-3.12,1.32-4.54,1.69-2.54,6.11-4.47,11.22-4.9,.61-.05,1.42-.08,2.27-.08m0-1c-.92,0-1.74,.03-2.35,.08-5.41,.47-10.11,2.56-11.97,5.35-1.07,1.57-1.48,3-1.48,5.1,.02,1.42,.11,2.08,.42,2.92,1.2,3.24,3.84,5.76,8.57,8.16,2.77,1.41,7.72,3.27,11.27,4.23l1.05,.27c.08,.02,.17,.03,.25,.03,.18,0,.36-.05,.51-.14l1.36-.81c1.57-.94,4.36-2.16,6.78-2.98,1.55-.52,2.19-.74,2.21-1.57,0-.18-.05-.77-.77-1.04-.32-.12-2.49-.68-3.93-1.04-11.82-2.96-17.08-4.9-19.39-7.17-.79-.78-.8-.84-.85-1.2-.1-.68,.07-1.31,.48-1.82,.57-.7,1.6-1.13,2.81-1.2,.16,0,.32-.01,.46-.01,.86,0,1.26,.14,2.93,1.41,2.58,1.97,4.83,2.79,8.6,3.13,.78,.07,1.26,.09,1.67,.09,1.44,0,2.11-.39,2.99-1.2,.77-.74,1-1.02,1-1.47,0-.53-.3-.82-.75-1h.3s.02,0,.02,0c.29,0,.56-.12,.75-.34,.2-.22,.28-.52,.24-.81l-.14-.91c-.22-1.51-.79-2.49-1.97-3.37-1.93-1.43-4.26-2.22-7.57-2.55-.93-.09-2.23-.14-3.49-.14h0Z"/></g><g><path class="cls-2" d="M97.52,156.5c-.11,0-.23-.02-.44-.06-1.05-.19-2.89-1.15-3.78-1.97-.49-.44-1.17-1.24-1.54-1.75-3.65-5.4-3.04-12.11,1.51-16.71,1.51-1.53,3.45-2.76,7.41-4.7,4.95-2.45,6.96-4.08,8.23-6.73,1.4-2.9,.75-6.03-1.74-8.37-.84-.8-2.4-1.87-3.3-2.36-.04,.68-.04,2.1-.04,3.9,0,2.67-.05,6.31-.11,8.12l-.09,3.4c0,.19-.11,.35-.28,.44l-2.84,1.38c-1.65,.81-3.58,1.84-4.41,2.34-1.36,.81-1.79,.96-2.11,.96-.05,0-.17-.02-.21-.03-.79-.25-3.7-2.63-4.62-3.62-1.88-2.05-2.98-4.07-3.58-6.52-.43-1.86-.35-5.17,.18-6.94,1.03-3.5,3.49-6.61,7.12-8.97,1.59-1.02,4.94-2.58,7.47-3.48,4.66-1.67,6.04-2.29,8.2-3.69,2.36-1.52,3.93-3.41,4.43-5.3,.26-.94,.25-3.05-.02-4.04-.68-2.57-2.7-4.66-6.18-6.4-.93-.47-2.05-.96-2.71-1.22-.04,1.26-.08,4.47-.08,9.01v9.68c0,.21-.13,.4-.33,.47l-1.44,.52c-4.6,1.63-6.42,2.42-8.83,3.85-.33,.2-1.46,.86-1.81,.95-.05,.02-.14,.03-.24,.03-1.13,0-4.44-2.23-6.18-3.95-2.15-2.13-3.45-4.39-4.21-7.31-.58-2.21-.57-5.24,.02-7.54,.78-2.98,2.16-5.39,4.36-7.61,2.05-2.04,4.19-3.43,7.37-4.79,2.45-1.04,4.11-1.55,8.48-2.63,2.12-.52,5.69-1.39,7.94-1.96,13.35-3.27,19.57-6.12,19.57-8.98,0-1.08-1.24-2.52-2.51-2.89-.5-.15-1.01-.23-1.51-.23-1.16,0-2.22,.4-3.07,1.17-2.24,2-4.93,3.05-8.73,3.4-.69,.07-1.21,.1-1.62,.1s-.78-.04-1.09-.12c-.62-.18-2.39-1.25-2.51-1.89-.03-.15,.02-.34,.12-.47h0c.13-.16,.21-.27,2.93-.79,.87-.17,1.64-.35,2.27-.53-.47,0-.99,.02-1.53,.03,0,0-3.85,.09-3.85,.09-.13,0-.26-.05-.35-.14-.1-.09-.15-.22-.15-.36v-.53c0-.72,.5-1.91,1.15-2.77,1.23-1.63,4.1-2.73,8.53-3.26,.26-.03,.7-.05,1.32-.05,1.8,0,4.97,.15,6.11,.34,6.44,1.08,10.19,3.96,10.85,8.33,.56,3.75-1.44,7.45-5.48,10.14-4.44,2.97-11.42,5.48-23.35,8.41-8.19,2-10.38,2.74-13.03,4.39-2.39,1.51-3.93,3.38-4.47,5.41-.33,1.26-.29,3.39,.07,4.55,.5,1.59,2.17,3.52,4.27,4.9,.82,.54,3.62,1.95,4.66,2.37l-.03-8.68c-.03-4.6-.03-9.51-.01-9.72,0-.4,.45-.75,.84-.91,.37-.15,4.07-1.11,7.15-1.89,3.67-.91,6.89-1.75,7.24-1.87,.31-.12,.53-.2,.76-.2,.36,0,.61,.19,.95,.44,1.95,1.45,4.27,4.44,5.27,6.8,.96,2.31,1.14,3.3,1.12,6.26,0,2.43-.02,2.83-.45,4.19-1.39,4.5-4.07,7.6-8.98,10.35-2.09,1.18-4.08,2-8.22,3.39-5.4,1.82-8.26,3.43-9.87,5.56-1.23,1.63-1.71,3.47-1.39,5.31,.42,2.46,2.23,4.86,5.11,6.77l.56,.38,.04-7.2,.03-8.12c0-.2,.13-.39,.31-.46l1.46-.58c.8-.33,2.85-1.06,4.44-1.61,1.66-.57,3.69-1.31,4.51-1.62l1.55-.61c.06-.02,.12-.04,.18-.04,.11,0,.22,.04,.32,.11l.67,.55c2.01,1.65,4.12,5.14,4.79,7.95,.3,1.28,.33,1.86,.26,3.5-.1,2.27-.37,3.47-1.18,5.16-1.23,2.6-3.37,5.02-6.03,6.8-1.8,1.21-3.2,1.9-6.78,3.34-3.39,1.36-4.75,2.13-6.07,3.45-2.03,2.03-2.89,4.63-2.48,7.5,.31,2.29,1.05,3.87,2.72,5.84,.52,.6,1.35,1.6,1.48,1.83,.08,.15,.22,.43,.04,.71-.09,.15-.33,.26-.51,.26Z"/><path class="cls-1" d="M118.06,55.19c1.87,0,4.97,.16,6.03,.33,6.17,1.03,9.81,3.79,10.44,7.91,.53,3.57-1.36,7.05-5.27,9.65-4.43,2.96-11.31,5.42-23.19,8.34-8.21,2.01-10.48,2.77-13.18,4.45-2.48,1.57-4.12,3.56-4.69,5.7-.34,1.33-.31,3.57,.08,4.83,.53,1.71,2.29,3.73,4.47,5.17,.94,.61,4.37,2.33,5.08,2.54l.36,.11-.03-9.37c-.03-5.17-.03-9.51-.02-9.67,0-.16,.24-.38,.53-.5,.28-.11,3.48-.96,7.08-1.86,3.62-.89,6.9-1.76,7.27-1.88,.29-.11,.46-.17,.61-.17,.19,0,.33,.1,.65,.34,1.88,1.39,4.15,4.34,5.11,6.6,.92,2.23,1.1,3.12,1.08,6.06,0,2.44-.03,2.77-.42,4.04-1.35,4.37-3.96,7.38-8.74,10.06-2.05,1.16-4.03,1.97-8.13,3.35-5.53,1.86-8.43,3.51-10.11,5.74-3.1,4.12-1.57,9.21,3.84,12.8l1.33,.89,.05-8.13,.03-8.12,1.46-.58c.78-.33,2.79-1.03,4.42-1.6,1.65-.56,3.67-1.3,4.53-1.63l1.55-.61,.67,.55c1.93,1.58,3.98,5.01,4.62,7.68,.28,1.19,.31,1.72,.25,3.37-.09,2.19-.34,3.32-1.13,4.97-1.19,2.52-3.26,4.86-5.86,6.6-1.77,1.19-3.18,1.88-6.69,3.29-3.45,1.38-4.86,2.18-6.24,3.56-2.15,2.15-3.06,4.87-2.62,7.93,.33,2.4,1.11,4.06,2.84,6.1,.71,.81,1.35,1.61,1.43,1.76,.08,.16,.1,.23-.02,.23-.07,0-.17-.02-.34-.05-.96-.17-2.71-1.08-3.54-1.85-.45-.41-1.11-1.18-1.47-1.68-3.51-5.19-2.95-11.61,1.46-16.06,1.46-1.47,3.35-2.68,7.27-4.61,5.05-2.49,7.13-4.2,8.46-6.96,1.49-3.09,.78-6.47-1.85-8.95-.99-.94-3.07-2.35-3.9-2.66-.02,0-.04-.01-.06-.01-.2,0-.22,.58-.22,4.59,0,2.59-.05,6.22-.11,8.1l-.09,3.4-2.84,1.38c-1.57,.77-3.56,1.82-4.45,2.37-1.05,.62-1.59,.89-1.85,.89-.03,0-.05,0-.07,0-.6-.19-3.4-2.41-4.39-3.48-1.82-1.99-2.88-3.93-3.46-6.3-.41-1.76-.33-4.98,.17-6.68,1-3.4,3.38-6.39,6.91-8.7,1.54-.99,4.81-2.52,7.37-3.43,4.69-1.68,6.11-2.32,8.31-3.75,2.48-1.6,4.11-3.56,4.64-5.59,.28-1.03,.27-3.23-.02-4.29-.72-2.73-2.81-4.9-6.44-6.72-1.3-.66-3.15-1.44-3.38-1.44-.06,0-.13,4.36-.13,9.68v9.68l-1.44,.52c-4.64,1.65-6.47,2.44-8.92,3.89-.74,.44-1.49,.85-1.68,.89-.03,.01-.07,.02-.12,.02-.89,0-4.03-2.03-5.82-3.81-2.07-2.05-3.34-4.25-4.07-7.08-.56-2.16-.55-5.08,.02-7.29,.75-2.88,2.12-5.25,4.23-7.38,2.01-1.99,4.07-3.34,7.21-4.69,2.44-1.03,4.07-1.54,8.4-2.6,2.12-.52,5.69-1.39,7.94-1.96,13.77-3.37,19.95-6.3,19.95-9.46,0-1.32-1.38-2.93-2.87-3.37-.56-.16-1.11-.25-1.65-.25-1.26,0-2.45,.44-3.41,1.3-2.18,1.94-4.75,2.93-8.45,3.28-.68,.07-1.18,.1-1.57,.1-.42,0-.71-.04-.96-.1-.72-.2-2.35-1.39-2.13-1.57,.06-.08,1.25-.34,2.63-.61,2.33-.45,4.47-1.14,4.47-1.46,0-.05-.58-.07-1.49-.07-.65,0-1.46,.01-2.35,.04l-3.84,.09v-.53c0-.61,.47-1.71,1.05-2.46,1.14-1.52,3.92-2.55,8.2-3.07,.25-.03,.7-.05,1.26-.05m0-1c-.65,0-1.1,.02-1.38,.05-4.63,.56-7.54,1.69-8.87,3.46-.62,.8-1.25,2.12-1.25,3.06v.53c0,.27,.11,.53,.3,.72,.19,.18,.44,.28,.7,.28,0,0,.02,0,.02,0h.41c-.39,.12-.5,.21-.6,.35-.22,.25-.31,.58-.25,.92,.2,.99,2.31,2.12,2.86,2.27,.37,.1,.76,.14,1.24,.14,.43,0,.97-.03,1.68-.11,3.91-.36,6.69-1.45,9.01-3.52,.76-.68,1.71-1.04,2.74-1.04,.45,0,.91,.07,1.37,.2,1.14,.34,2.15,1.63,2.15,2.41,0,2.52-6.46,5.38-19.19,8.49-2.26,.57-5.83,1.44-7.94,1.96-4.4,1.08-6.07,1.6-8.55,2.65-3.25,1.4-5.42,2.81-7.52,4.9-2.27,2.29-3.7,4.77-4.49,7.84-.62,2.41-.62,5.47-.02,7.79,.78,3.01,2.12,5.34,4.34,7.54,1.51,1.5,4.51,3.65,6.09,4.04-2.8,2.24-4.73,4.98-5.63,8.02-.54,1.84-.63,5.26-.19,7.18,.63,2.55,1.77,4.63,3.7,6.75,.9,.97,3.9,3.47,4.82,3.76,.05,.02,.1,.03,.15,.04-.3,.26-.58,.51-.84,.78-4.72,4.77-5.36,11.74-1.57,17.33,.4,.56,1.11,1.39,1.63,1.86,.95,.88,2.88,1.88,4.03,2.09,.21,.04,.36,.07,.51,.07,.4,0,.73-.18,.93-.5,.32-.51,.07-1.01-.01-1.17-.23-.42-1.55-1.95-1.56-1.96-1.62-1.91-2.3-3.37-2.6-5.58-.4-2.76,.39-5.14,2.33-7.09,1.26-1.26,2.58-2.01,5.9-3.34,3.58-1.44,5.06-2.17,6.88-3.39,2.73-1.83,4.94-4.31,6.21-7,.84-1.76,1.12-3.01,1.22-5.35,.06-1.68,.04-2.32-.28-3.64-.7-2.9-2.88-6.51-4.96-8.22l-.66-.54c.3-.15,.59-.31,.88-.48,5.02-2.82,7.78-6,9.21-10.64,.44-1.42,.47-1.87,.47-4.34,.02-3.04-.17-4.07-1.16-6.45-1.03-2.44-3.42-5.52-5.44-7.02-.06-.05-.12-.09-.18-.13,7.12-2.07,11.74-4,15.12-6.26,4.21-2.81,6.29-6.68,5.7-10.63-.69-4.54-4.69-7.65-11.26-8.75-1.16-.19-4.37-.34-6.19-.34h0Zm-20.88,48.57c-1.22-.57-3.19-1.57-3.89-2.02-1.97-1.3-3.6-3.16-4.06-4.63-.34-1.07-.37-3.11-.06-4.28,.5-1.9,1.97-3.66,4.25-5.11,1.15-.71,2.21-1.25,3.75-1.81-.02,.09-.03,.18-.03,.27h0c-.02,.82,0,6.01,.02,9.67l.03,7.9h0Zm7.3-.03v-9.54c0-3.81,.03-6.72,.06-8.27,.59,.25,1.32,.58,2,.92,3.35,1.67,5.29,3.66,5.93,6.09,.24,.91,.25,2.92,.02,3.77-.47,1.78-1.96,3.56-4.22,5.02-1.25,.81-2.24,1.36-3.79,2.01h0Zm-.35,26.12l.08-2.96c.06-1.82,.11-5.47,.11-8.13,0-1.18,0-2.27,.01-3.05,.83,.53,1.88,1.28,2.48,1.86,2.33,2.19,2.94,5.1,1.64,7.79-.85,1.76-2.05,3.06-4.32,4.49h0Zm-6.89-.06c-2.64-1.81-4.29-4.03-4.68-6.3-.29-1.71,.16-3.41,1.3-4.93,.78-1.03,1.87-1.94,3.45-2.82l-.03,7.77-.04,6.27h0Z"/></g><g><path class="cls-2" d="M100.76,178.89c-.31,0-.79,0-1.29-3-.56-3.43-1.06-15.03-1.28-29.55l-.11-6.97c0-.2,.12-.39,.3-.47l1.55-.67c.61-.27,1.8-.78,2.96-1.28l1.26-.54c.11-.05,2.72-1.16,3.07-1.2,0,0,.02,0,.03,0,.2,0,.59,.06,1.55,1.21,2.41,2.88,3.67,6.36,3.44,9.56-.28,3.64-2.32,7.51-4.86,9.22-.89,.59-2.21,1.19-3,1.19-.07,0-.14,0-.19-.01-.34-.06-.47-.27-.51-.39-.15-.42,.08-.71,1.23-2.04,2.17-2.55,2.98-4.56,3-7.43,.02-1.32-.07-1.79-.34-2.63-.43-1.31-1.26-2.63-2.27-3.62-.48-.46-1.23-1.04-1.74-1.4-.02,.56-.04,1.48-.04,2.81,0,8.92-.68,27.93-1.18,32.82-.17,1.65-.61,4.41-1.58,4.41Z"/><path class="cls-1" d="M107.28,135.7c.15,0,.66,.46,1.14,1.03,2.35,2.81,3.54,6.14,3.32,9.2-.27,3.51-2.21,7.21-4.64,8.84-.95,.63-2.14,1.1-2.72,1.1-.04,0-.08,0-.12,0-.28-.05-.13-.28,1.02-1.61,2.26-2.65,3.1-4.75,3.12-7.76,.02-1.33-.06-1.86-.36-2.79-.45-1.39-1.32-2.77-2.4-3.82-.77-.74-2.27-1.85-2.51-1.85-.08,0-.13,1.63-.13,3.62,0,8.98-.69,27.97-1.18,32.77-.22,2.08-.74,3.96-1.08,3.96-.22,0-.55-1.1-.8-2.59-.55-3.35-1.05-14.67-1.27-29.48l-.11-6.97,1.55-.67c.85-.38,2.76-1.19,4.22-1.82,1.47-.63,2.79-1.14,2.93-1.16,0,0,0,0,0,0m0-1s-.08,0-.12,0c-.35,.04-1.94,.69-3.21,1.23l-1.27,.54c-1.16,.5-2.35,1.01-2.96,1.28l-1.54,.67c-.37,.16-.61,.53-.6,.93l.11,6.97c.22,14.55,.72,26.18,1.28,29.62,.44,2.59,.87,3.42,1.79,3.42,1.56,0,1.92-3.41,2.08-4.86,.28-2.81,.63-10.27,.87-17.81,.11,.06,.24,.11,.4,.13,.1,.01,.19,.02,.28,.02,.93,0,2.34-.66,3.27-1.27,2.7-1.81,4.79-5.76,5.08-9.6,.24-3.32-1.06-6.94-3.55-9.92-1.17-1.39-1.65-1.39-1.9-1.39h0Zm-3.51,19.79c.14-4.85,.24-9.54,.24-12.84,0-.74,0-1.35,.02-1.84,.33,.26,.66,.54,.92,.79,.95,.93,1.73,2.17,2.14,3.41,.25,.79,.33,1.21,.31,2.47-.01,2.78-.77,4.64-2.88,7.12-.3,.35-.55,.64-.75,.89h0Z"/></g></g></svg>